<?xml version="1.0" encoding="utf-8"?>
<?xml-stylesheet type="text/xsl" href="rss1.xsl"?>
<rss version="2.0" xmlns:atom="http://www.w3.org/2005/Atom" xmlns:content="http://purl.org/rss/1.0/modules/content/" xmlns:dc="http://purl.org/dc/elements/1.1/" xmlns:media="http://search.yahoo.com/mrss/">
<channel>
 <title>Getty</title>
 <link>http://www.gettyimg.com/</link>
 <atom:link href="http://www.gettyimg.com/" rel="self" type="application/rss+xml" />

 
                <item>
                <title><![CDATA[【Actresses】Zoe Naylor - The Book of Revelation (2006)1080p]]></title>
                <link><![CDATA[https://sharemania.us/threads/zoe-naylor-the-book-of-revelation-2006-1080p.242653/]]></link>
                <description><![CDATA[<article>
<blockquote class="messageText SelectQuoteContainer ugc baseHtml">
Zoe Naylor - The Book of Revelation (2006)1080p<br>
<br>
<a href="https://imgbox.com/DWnX7CJd" target="_blank" class="externalLink" rel="nofollow"><img src="https://thumbs2.imgbox.com/2e/a6/DWnX7CJd_t.jpg" class="bbCodeImage LbImage" alt="[​IMG]" data-url="https://thumbs2.imgbox.com/2e/a6/DWnX7CJd_t.jpg"></a> <a href="https://imgbox.com/7AObImx4" target="_blank" class="externalLink" rel="nofollow"><img src="https://thumbs2.imgbox.com/5a/16/7AObImx4_t.jpg" class="bbCodeImage LbImage" alt="[​IMG]" data-url="https://thumbs2.imgbox.com/5a/16/7AObImx4_t.jpg"></a> <a href="https://imgbox.com/56MvuMYs" target="_blank" class="externalLink" rel="nofollow"><img src="https://thumbs2.imgbox.com/2e/cd/56MvuMYs_t.jpg" class="bbCodeImage LbImage" alt="[​IMG]" data-url="https://thumbs2.imgbox.com/2e/cd/56MvuMYs_t.jpg"></a> <a href="https://imgbox.com/4IrUBsAG" target="_blank" class="externalLink" rel="nofollow"><img src="https://thumbs2.imgbox.com/9f/b1/4IrUBsAG_t.jpg" class="bbCodeImage LbImage" alt="[​IMG]" data-url="https://thumbs2.imgbox.com/9f/b1/4IrUBsAG_t.jpg"></a> <a href="https://imgbox.com/0OBlBKX6" target="_blank" class="externalLink" rel="nofollow"><img src="https://thumbs2.imgbox.com/8f/c7/0OBlBKX6_t.jpg" class="bbCodeImage LbImage" alt="[​IMG]" data-url="https://thumbs2.imgbox.com/8f/c7/0OBlBKX6_t.jpg"></a> <a href="https://imgbox.com/gMq2JvFd" target="_blank" class="externalLink" rel="nofollow"><img src="https://thumbs2.imgbox.com/9a/f7/gMq2JvFd_t.jpg" class="bbCodeImage LbImage" alt="[​IMG]" data-url="https://thumbs2.imgbox.com/9a/f7/gMq2JvFd_t.jpg"></a><br>
Duration: 0:05:32 Resolution: 1920x1080 Format: mp4 Size: 178.64 MB<br>
<a href="https://filejoker.net/esey6panbrxj" target="_blank" class="externalLink" rel="nofollow">https://filejoker.net/esey6panbrxj</a>
<div class="messageTextEndMarker">&nbsp;</div>
</blockquote>
</article>]]></description>
                <author><![CDATA[piqeros]]></author>
                </item>

                
                <item>
                <title><![CDATA[【Apple Music】PACK - Taylor Swift - The Tortured Poets Department: The Anthology [Lyric Video + Music Video] (2024) [MP4] [Apple Music DL]]]></title>
                <link><![CDATA[https://sharemania.us/threads/taylor-swift-the-tortured-poets-department-the-anthology-lyric-video-music-video-2024-mp4-apple-music-dl.242654/]]></link>
                <description><![CDATA[<article>
<blockquote class="messageText SelectQuoteContainer ugc baseHtml">
<span style="text-decoration: underline">Taylor Swift - THE TORTURED POETS DEPARTMENT: THE ANTHOLOGY [Lyric Video + Music Video] (2024) [MP4] [Apple Music DL]</span><br>
<img src="https://imgur.com/hRQLXDa.jpg" class="bbCodeImage LbImage" alt="[​IMG]" data-url="https://imgur.com/hRQLXDa.jpg" style=""><br>
<br>
Includes 31 Tracks + 1 Music Video<br>
Taylor Swift - Fortnight (feat. Post Malone) [Lyric Video]<br>
<img src="https://imgur.com/l2xHIgq.jpg" class="bbCodeImage LbImage" alt="[​IMG]" data-url="https://imgur.com/l2xHIgq.jpg" style=""><br>
<div class="ToggleTriggerAnchor bbCodeSpoilerContainer">
<button type="button" class="button bbCodeSpoilerButton ToggleTrigger Tooltip JsOnly" data-target="> .SpoilerTarget"><span>Spoiler: <span class="SpoilerTitle">MEDIA INFO</span></span></button>
<div class="SpoilerTarget bbCodeSpoilerText">General<br>
Complete name : Taylor Swift - Fortnight (feat. Post Malone) [Lyric Video] [1742249886].mp4<br>
Format : MPEG-4<br>
Format profile : Base Media<br>
Codec ID : isom (isom/iso4)<br>
File size : 175 MiB<br>
Duration : 3 min 53 s<br>
Overall bit rate mode : Variable<br>
Overall bit rate : 6 280 kb/s<br>
Frame rate : 29.970 FPS<br>
Movie name : Fortnight (feat. Post Malone) [Lyric Video]<br>
Performer : Taylor Swift<br>
Genre : Pop<br>
ContentType : Music Video<br>
Recorded date : 2024-04-19<br>
Encoded date : 2024-04-20 05:59:45 UTC<br>
Tagged date : 2024-04-20 05:59:45 UTC<br>
ISRC : USUMV2400556<br>
Cover : Yes<br>
<br>
Video<br>
ID : 1<br>
Format : AVC<br>
Format/Info : Advanced Video Codec<br>
Format profile : High@L4<br>
Format settings : CABAC / 4 Ref Frames<br>
Format settings, CABAC : Yes<br>
Format settings, Reference fra : 4 frames<br>
Codec ID : avc1<br>
Codec ID/Info : Advanced Video Coding<br>
Duration : 3 min 53 s<br>
Bit rate : 6 008 kb/s<br>
Maximum bit rate : 12.7 Mb/s<br>
Width : 1 920 pixels<br>
Height : 1 080 pixels<br>
Display aspect ratio : 16:9<br>
Frame rate mode : Constant<br>
Frame rate : 29.970 (30000/1001) FPS<br>
Color space : YUV<br>
Chroma subsampling : 4:2:0<br>
Bit depth : 8 bits<br>
Scan type : Progressive<br>
Bits/(Pixel*Frame) : 0.097<br>
Stream size : 167 MiB (96%)<br>
Default : Yes<br>
Alternate group : 1<br>
Encoded date : 2024-04-20 00:05:41 UTC<br>
Tagged date : 2024-04-20 05:59:45 UTC<br>
Color range : Limited<br>
Color primaries : BT.709<br>
Transfer characteristics : BT.709<br>
Matrix coefficients : BT.709<br>
Codec configuration box : avcC<br>
<br>
Audio<br>
ID : 2<br>
Format : AAC LC<br>
Format/Info : Advanced Audio Codec Low Complexity<br>
Codec ID : mp4a-40-2<br>
Duration : 3 min 53 s<br>
Duration_LastFrame : -4 ms<br>
Bit rate mode : Variable<br>
Bit rate : 253 kb/s<br>
Maximum bit rate : 344 kb/s<br>
Channel(s) : 2 channels<br>
Channel layout : L R<br>
Sampling rate : 48.0 kHz<br>
Frame rate : 46.875 FPS (1024 SPF)<br>
Compression mode : Lossy<br>
Stream size : 7.04 MiB (4%)<br>
Language : English<br>
Default : Yes<br>
Alternate group : 2<br>
Encoded date : 2024-04-20 00:05:18 UTC<br>
Tagged date : 2024-04-20 05:59:45 UTC</div>
</div><br>
Taylor Swift - The Tortured Poets Department (Lyric Video)<br>
<img src="https://imgur.com/aByhjRY.jpg" class="bbCodeImage LbImage" alt="[​IMG]" data-url="https://imgur.com/aByhjRY.jpg" style=""><br>
<div class="ToggleTriggerAnchor bbCodeSpoilerContainer">
<button type="button" class="button bbCodeSpoilerButton ToggleTrigger Tooltip JsOnly" data-target="> .SpoilerTarget"><span>Spoiler: <span class="SpoilerTitle">MEDIA INFO</span></span></button>
<div class="SpoilerTarget bbCodeSpoilerText">General<br>
Complete name : Taylor Swift - The Tortured Poets Department (Lyric Video) [1742259123] [E].mp4<br>
Format : MPEG-4<br>
Format profile : Base Media<br>
Codec ID : isom (isom/iso4)<br>
File size : 244 MiB<br>
Duration : 4 min 57 s<br>
Overall bit rate mode : Variable<br>
Overall bit rate : 6 866 kb/s<br>
Frame rate : 29.970 FPS<br>
Movie name : The Tortured Poets Department (Lyric Video)<br>
Performer : Taylor Swift<br>
Genre : Pop<br>
ContentType : Music Video<br>
Recorded date : 2024-04-19<br>
Encoded date : 2024-04-20 06:03:03 UTC<br>
Tagged date : 2024-04-20 06:03:03 UTC<br>
ISRC : USUMV2400557<br>
Cover : Yes<br>
Rating : Explicit<br>
<br>
Video<br>
ID : 1<br>
Format : AVC<br>
Format/Info : Advanced Video Codec<br>
Format profile : High@L4<br>
Format settings : CABAC / 4 Ref Frames<br>
Format settings, CABAC : Yes<br>
Format settings, Reference fra : 4 frames<br>
Codec ID : avc1<br>
Codec ID/Info : Advanced Video Coding<br>
Duration : 4 min 57 s<br>
Bit rate : 6 595 kb/s<br>
Maximum bit rate : 11.8 Mb/s<br>
Width : 1 920 pixels<br>
Height : 1 080 pixels<br>
Display aspect ratio : 16:9<br>
Frame rate mode : Constant<br>
Frame rate : 29.970 (30000/1001) FPS<br>
Color space : YUV<br>
Chroma subsampling : 4:2:0<br>
Bit depth : 8 bits<br>
Scan type : Progressive<br>
Bits/(Pixel*Frame) : 0.106<br>
Stream size : 234 MiB (96%)<br>
Default : Yes<br>
Alternate group : 1<br>
Encoded date : 2024-04-19 23:53:22 UTC<br>
Tagged date : 2024-04-20 06:03:04 UTC<br>
Color range : Limited<br>
Color primaries : BT.709<br>
Transfer characteristics : BT.709<br>
Matrix coefficients : BT.709<br>
Codec configuration box : avcC<br>
<br>
Audio<br>
ID : 2<br>
Format : AAC LC<br>
Format/Info : Advanced Audio Codec Low Complexity<br>
Codec ID : mp4a-40-2<br>
Duration : 4 min 57 s<br>
Duration_LastFrame : -18 ms<br>
Bit rate mode : Variable<br>
Bit rate : 254 kb/s<br>
Maximum bit rate : 301 kb/s<br>
Channel(s) : 2 channels<br>
Channel layout : L R<br>
Sampling rate : 48.0 kHz<br>
Frame rate : 46.875 FPS (1024 SPF)<br>
Compression mode : Lossy<br>
Stream size : 9.01 MiB (4%)<br>
Language : English<br>
Default : Yes<br>
Alternate group : 2<br>
Encoded date : 2024-04-19 23:53:12 UTC<br>
Tagged date : 2024-04-20 06:03:04 UTC</div>
</div><br>
Taylor Swift - My Boy Only Breaks His Favorite Toys (Lyric Video)<br>
<img src="https://imgur.com/mFGPDFx.jpg" class="bbCodeImage LbImage" alt="[​IMG]" data-url="https://imgur.com/mFGPDFx.jpg" style=""><br>
<div class="ToggleTriggerAnchor bbCodeSpoilerContainer">
<button type="button" class="button bbCodeSpoilerButton ToggleTrigger Tooltip JsOnly" data-target="> .SpoilerTarget"><span>Spoiler: <span class="SpoilerTitle">MEDIA INFO</span></span></button>
<div class="SpoilerTarget bbCodeSpoilerText">General<br>
Complete name : Taylor Swift - My Boy Only Breaks His Favorite Toys (Lyric Video) [1742249960].mp4<br>
Format : MPEG-4<br>
Format profile : Base Media<br>
Codec ID : isom (isom/iso4)<br>
File size : 176 MiB<br>
Duration : 3 min 28 s<br>
Overall bit rate mode : Variable<br>
Overall bit rate : 7 098 kb/s<br>
Frame rate : 29.970 FPS<br>
Movie name : My Boy Only Breaks His Favorite Toys (Lyric Video)<br>
Performer : Taylor Swift<br>
Genre : Pop<br>
ContentType : Music Video<br>
Recorded date : 2024-04-19<br>
Encoded date : 2024-04-20 06:04:17 UTC<br>
Tagged date : 2024-04-20 06:04:17 UTC<br>
ISRC : USUMV2400558<br>
Cover : Yes<br>
<br>
Video<br>
ID : 1<br>
Format : AVC<br>
Format/Info : Advanced Video Codec<br>
Format profile : High@L4<br>
Format settings : CABAC / 4 Ref Frames<br>
Format settings, CABAC : Yes<br>
Format settings, Reference fra : 4 frames<br>
Codec ID : avc1<br>
Codec ID/Info : Advanced Video Coding<br>
Duration : 3 min 28 s<br>
Bit rate : 6 828 kb/s<br>
Maximum bit rate : 16.6 Mb/s<br>
Width : 1 920 pixels<br>
Height : 1 080 pixels<br>
Display aspect ratio : 16:9<br>
Frame rate mode : Constant<br>
Frame rate : 29.970 (30000/1001) FPS<br>
Color space : YUV<br>
Chroma subsampling : 4:2:0<br>
Bit depth : 8 bits<br>
Scan type : Progressive<br>
Bits/(Pixel*Frame) : 0.110<br>
Stream size : 170 MiB (96%)<br>
Default : Yes<br>
Alternate group : 1<br>
Encoded date : 2024-04-19 23:55:40 UTC<br>
Tagged date : 2024-04-20 06:04:17 UTC<br>
Color range : Limited<br>
Color primaries : BT.709<br>
Transfer characteristics : BT.709<br>
Matrix coefficients : BT.709<br>
Codec configuration box : avcC<br>
<br>
Audio<br>
ID : 2<br>
Format : AAC LC<br>
Format/Info : Advanced Audio Codec Low Complexity<br>
Codec ID : mp4a-40-2<br>
Duration : 3 min 28 s<br>
Duration_LastFrame : -15 ms<br>
Bit rate mode : Variable<br>
Bit rate : 252 kb/s<br>
Maximum bit rate : 313 kb/s<br>
Channel(s) : 2 channels<br>
Channel layout : L R<br>
Sampling rate : 48.0 kHz<br>
Frame rate : 46.875 FPS (1024 SPF)<br>
Compression mode : Lossy<br>
Stream size : 6.27 MiB (4%)<br>
Language : English<br>
Default : Yes<br>
Alternate group : 2<br>
Encoded date : 2024-04-19 23:55:36 UTC<br>
Tagged date : 2024-04-20 06:04:17 UTC</div>
</div><br>
Taylor Swift - Down Bad (Lyric Video)<br>
<img src="https://imgur.com/QIcAks6.jpg" class="bbCodeImage LbImage" alt="[​IMG]" data-url="https://imgur.com/QIcAks6.jpg" style=""><br>
<div class="ToggleTriggerAnchor bbCodeSpoilerContainer">
<button type="button" class="button bbCodeSpoilerButton ToggleTrigger Tooltip JsOnly" data-target="> .SpoilerTarget"><span>Spoiler: <span class="SpoilerTitle">MEDIA INFO</span></span></button>
<div class="SpoilerTarget bbCodeSpoilerText">General<br>
Complete name : Taylor Swift - Down Bad (Lyric Video) [1742245965] [E].mp4<br>
Format : MPEG-4<br>
Format profile : Base Media<br>
Codec ID : isom (isom/iso4)<br>
File size : 222 MiB<br>
Duration : 4 min 25 s<br>
Overall bit rate mode : Variable<br>
Overall bit rate : 7 000 kb/s<br>
Frame rate : 29.970 FPS<br>
Movie name : Down Bad (Lyric Video)<br>
Performer : Taylor Swift<br>
Genre : Pop<br>
ContentType : Music Video<br>
Recorded date : 2024-04-19<br>
Encoded date : 2024-04-20 06:07:35 UTC<br>
Tagged date : 2024-04-20 06:07:35 UTC<br>
ISRC : USUMV2400559<br>
Cover : Yes<br>
Rating : Explicit<br>
<br>
Video<br>
ID : 1<br>
Format : AVC<br>
Format/Info : Advanced Video Codec<br>
Format profile : High@L4<br>
Format settings : CABAC / 4 Ref Frames<br>
Format settings, CABAC : Yes<br>
Format settings, Reference fra : 4 frames<br>
Codec ID : avc1<br>
Codec ID/Info : Advanced Video Coding<br>
Duration : 4 min 25 s<br>
Bit rate : 6 735 kb/s<br>
Maximum bit rate : 14.9 Mb/s<br>
Width : 1 920 pixels<br>
Height : 1 080 pixels<br>
Display aspect ratio : 16:9<br>
Frame rate mode : Constant<br>
Frame rate : 29.970 (30000/1001) FPS<br>
Color space : YUV<br>
Chroma subsampling : 4:2:0<br>
Bit depth : 8 bits<br>
Scan type : Progressive<br>
Bits/(Pixel*Frame) : 0.108<br>
Stream size : 213 MiB (96%)<br>
Default : Yes<br>
Alternate group : 1<br>
Encoded date : 2024-04-20 01:35:06 UTC<br>
Tagged date : 2024-04-20 06:07:36 UTC<br>
Color range : Limited<br>
Color primaries : BT.709<br>
Transfer characteristics : BT.709<br>
Matrix coefficients : BT.709<br>
Codec configuration box : avcC<br>
<br>
Audio<br>
ID : 2<br>
Format : AAC LC<br>
Format/Info : Advanced Audio Codec Low Complexity<br>
Codec ID : mp4a-40-2<br>
Duration : 4 min 25 s<br>
Duration_LastFrame : -9 ms<br>
Bit rate mode : Variable<br>
Bit rate : 250 kb/s<br>
Maximum bit rate : 314 kb/s<br>
Channel(s) : 2 channels<br>
Channel layout : L R<br>
Sampling rate : 48.0 kHz<br>
Frame rate : 46.875 FPS (1024 SPF)<br>
Compression mode : Lossy<br>
Stream size : 7.93 MiB (4%)<br>
Language : English<br>
Default : Yes<br>
Alternate group : 2<br>
Encoded date : 2024-04-20 01:34:37 UTC<br>
Tagged date : 2024-04-20 06:07:36 UTC</div>
</div><br>
Taylor Swift - So Long, London (Lyric Video)<br>
<img src="https://imgur.com/xvDvwE8.jpg" class="bbCodeImage LbImage" alt="[​IMG]" data-url="https://imgur.com/xvDvwE8.jpg" style=""><br>
<div class="ToggleTriggerAnchor bbCodeSpoilerContainer">
<button type="button" class="button bbCodeSpoilerButton ToggleTrigger Tooltip JsOnly" data-target="> .SpoilerTarget"><span>Spoiler: <span class="SpoilerTitle">MEDIA INFO</span></span></button>
<div class="SpoilerTarget bbCodeSpoilerText">General<br>
Complete name : Taylor Swift - So Long, London (Lyric Video) [1742252572].mp4<br>
Format : MPEG-4<br>
Format profile : Base Media<br>
Codec ID : isom (isom/iso4)<br>
File size : 215 MiB<br>
Duration : 4 min 27 s<br>
Overall bit rate mode : Variable<br>
Overall bit rate : 6 754 kb/s<br>
Frame rate : 29.970 FPS<br>
Movie name : So Long, London (Lyric Video)<br>
Performer : Taylor Swift<br>
Genre : Pop<br>
ContentType : Music Video<br>
Recorded date : 2024-04-19<br>
Encoded date : 2024-04-20 04:23:59 UTC<br>
Tagged date : 2024-04-20 04:23:59 UTC<br>
ISRC : USUMV2400564<br>
Cover : Yes<br>
<br>
Video<br>
ID : 1<br>
Format : AVC<br>
Format/Info : Advanced Video Codec<br>
Format profile : High@L4<br>
Format settings : CABAC / 4 Ref Frames<br>
Format settings, CABAC : Yes<br>
Format settings, Reference fra : 4 frames<br>
Codec ID : avc1<br>
Codec ID/Info : Advanced Video Coding<br>
Duration : 4 min 27 s<br>
Bit rate : 6 481 kb/s<br>
Maximum bit rate : 16.3 Mb/s<br>
Width : 1 920 pixels<br>
Height : 1 080 pixels<br>
Display aspect ratio : 16:9<br>
Frame rate mode : Constant<br>
Frame rate : 29.970 (30000/1001) FPS<br>
Color space : YUV<br>
Chroma subsampling : 4:2:0<br>
Bit depth : 8 bits<br>
Scan type : Progressive<br>
Bits/(Pixel*Frame) : 0.104<br>
Stream size : 207 MiB (96%)<br>
Default : Yes<br>
Alternate group : 1<br>
Encoded date : 2024-04-19 23:53:51 UTC<br>
Tagged date : 2024-04-20 04:23:59 UTC<br>
Color range : Limited<br>
Color primaries : BT.709<br>
Transfer characteristics : BT.709<br>
Matrix coefficients : BT.709<br>
Codec configuration box : avcC<br>
<br>
Audio<br>
ID : 2<br>
Format : AAC LC<br>
Format/Info : Advanced Audio Codec Low Complexity<br>
Codec ID : mp4a-40-2<br>
Duration : 4 min 27 s<br>
Duration_LastFrame : -1 ms<br>
Bit rate mode : Variable<br>
Bit rate : 251 kb/s<br>
Maximum bit rate : 320 kb/s<br>
Channel(s) : 2 channels<br>
Channel layout : L R<br>
Sampling rate : 48.0 kHz<br>
Frame rate : 46.875 FPS (1024 SPF)<br>
Compression mode : Lossy<br>
Stream size : 8.01 MiB (4%)<br>
Language : English<br>
Default : Yes<br>
Alternate group : 2<br>
Encoded date : 2024-04-19 23:53:20 UTC<br>
Tagged date : 2024-04-20 04:23:59 UTC</div>
</div><br>
Taylor Swift - But Daddy I Love Him (Lyric Video)<br>
<img src="https://imgur.com/Hx0ocHi.jpg" class="bbCodeImage LbImage" alt="[​IMG]" data-url="https://imgur.com/Hx0ocHi.jpg" style=""><br>
<div class="ToggleTriggerAnchor bbCodeSpoilerContainer">
<button type="button" class="button bbCodeSpoilerButton ToggleTrigger Tooltip JsOnly" data-target="> .SpoilerTarget"><span>Spoiler: <span class="SpoilerTitle">MEDIA INFO</span></span></button>
<div class="SpoilerTarget bbCodeSpoilerText">General<br>
Complete name : Taylor Swift - But Daddy I Love Him (Lyric Video) [1742258852] [E].mp4<br>
Format : MPEG-4<br>
Format profile : Base Media<br>
Codec ID : isom (isom/iso4)<br>
File size : 285 MiB<br>
Duration : 5 min 45 s<br>
Overall bit rate mode : Variable<br>
Overall bit rate : 6 931 kb/s<br>
Frame rate : 29.970 FPS<br>
Movie name : But Daddy I Love Him (Lyric Video)<br>
Performer : Taylor Swift<br>
Genre : Pop<br>
ContentType : Music Video<br>
Recorded date : 2024-04-19<br>
Encoded date : 2024-04-20 06:10:33 UTC<br>
Tagged date : 2024-04-20 06:10:33 UTC<br>
ISRC : USUMV2400565<br>
Cover : Yes<br>
Rating : Explicit<br>
<br>
Video<br>
ID : 1<br>
Format : AVC<br>
Format/Info : Advanced Video Codec<br>
Format profile : High@L4<br>
Format settings : CABAC / 4 Ref Frames<br>
Format settings, CABAC : Yes<br>
Format settings, Reference fra : 4 frames<br>
Codec ID : avc1<br>
Codec ID/Info : Advanced Video Coding<br>
Duration : 5 min 44 s<br>
Bit rate : 6 660 kb/s<br>
Maximum bit rate : 12.4 Mb/s<br>
Width : 1 920 pixels<br>
Height : 1 080 pixels<br>
Display aspect ratio : 16:9<br>
Frame rate mode : Constant<br>
Frame rate : 29.970 (30000/1001) FPS<br>
Color space : YUV<br>
Chroma subsampling : 4:2:0<br>
Bit depth : 8 bits<br>
Scan type : Progressive<br>
Bits/(Pixel*Frame) : 0.107<br>
Stream size : 274 MiB (96%)<br>
Default : Yes<br>
Alternate group : 1<br>
Encoded date : 2024-04-19 23:57:01 UTC<br>
Tagged date : 2024-04-20 06:10:33 UTC<br>
Color range : Limited<br>
Color primaries : BT.709<br>
Transfer characteristics : BT.709<br>
Matrix coefficients : BT.709<br>
Codec configuration box : avcC<br>
<br>
Audio<br>
ID : 2<br>
Format : AAC LC<br>
Format/Info : Advanced Audio Codec Low Complexity<br>
Codec ID : mp4a-40-2<br>
Duration : 5 min 45 s<br>
Duration_LastFrame : -19 ms<br>
Bit rate mode : Variable<br>
Bit rate : 254 kb/s<br>
Maximum bit rate : 311 kb/s<br>
Channel(s) : 2 channels<br>
Channel layout : L R<br>
Sampling rate : 48.0 kHz<br>
Frame rate : 46.875 FPS (1024 SPF)<br>
Compression mode : Lossy<br>
Stream size : 10.5 MiB (4%)<br>
Language : English<br>
Default : Yes<br>
Alternate group : 2<br>
Encoded date : 2024-04-19 23:56:44 UTC<br>
Tagged date : 2024-04-20 06:10:33 UTC</div>
</div><br>
Taylor Swift - Fresh Out The Slammer (Lyric Video)<br>
<img src="https://imgur.com/knUr5Re.jpg" class="bbCodeImage LbImage" alt="[​IMG]" data-url="https://imgur.com/knUr5Re.jpg" style=""><br>
<div class="ToggleTriggerAnchor bbCodeSpoilerContainer">
<button type="button" class="button bbCodeSpoilerButton ToggleTrigger Tooltip JsOnly" data-target="> .SpoilerTarget"><span>Spoiler: <span class="SpoilerTitle">MEDIA INFO</span></span></button>
<div class="SpoilerTarget bbCodeSpoilerText">General<br>
Complete name : Taylor Swift - Fresh Out The Slammer (Lyric Video) [1742249001].mp4<br>
Format : MPEG-4<br>
Format profile : Base Media<br>
Codec ID : isom (isom/iso4)<br>
File size : 181 MiB<br>
Duration : 3 min 35 s<br>
Overall bit rate mode : Variable<br>
Overall bit rate : 7 050 kb/s<br>
Frame rate : 29.970 FPS<br>
Movie name : Fresh Out The Slammer (Lyric Video)<br>
Performer : Taylor Swift<br>
Genre : Pop<br>
ContentType : Music Video<br>
Recorded date : 2024-04-19<br>
Encoded date : 2024-04-20 06:11:46 UTC<br>
Tagged date : 2024-04-20 06:11:46 UTC<br>
ISRC : USUMV2400566<br>
Cover : Yes<br>
<br>
Video<br>
ID : 1<br>
Format : AVC<br>
Format/Info : Advanced Video Codec<br>
Format profile : High@L4<br>
Format settings : CABAC / 4 Ref Frames<br>
Format settings, CABAC : Yes<br>
Format settings, Reference fra : 4 frames<br>
Codec ID : avc1<br>
Codec ID/Info : Advanced Video Coding<br>
Duration : 3 min 35 s<br>
Bit rate : 6 777 kb/s<br>
Maximum bit rate : 13.2 Mb/s<br>
Width : 1 920 pixels<br>
Height : 1 080 pixels<br>
Display aspect ratio : 16:9<br>
Frame rate mode : Constant<br>
Frame rate : 29.970 (30000/1001) FPS<br>
Color space : YUV<br>
Chroma subsampling : 4:2:0<br>
Bit depth : 8 bits<br>
Scan type : Progressive<br>
Bits/(Pixel*Frame) : 0.109<br>
Stream size : 174 MiB (96%)<br>
Default : Yes<br>
Alternate group : 1<br>
Encoded date : 2024-04-19 23:53:48 UTC<br>
Tagged date : 2024-04-20 06:11:47 UTC<br>
Color range : Limited<br>
Color primaries : BT.709<br>
Transfer characteristics : BT.709<br>
Matrix coefficients : BT.709<br>
Codec configuration box : avcC<br>
<br>
Audio<br>
ID : 2<br>
Format : AAC LC<br>
Format/Info : Advanced Audio Codec Low Complexity<br>
Codec ID : mp4a-40-2<br>
Duration : 3 min 35 s<br>
Duration_LastFrame : -15 ms<br>
Bit rate mode : Variable<br>
Bit rate : 250 kb/s<br>
Maximum bit rate : 316 kb/s<br>
Channel(s) : 2 channels<br>
Channel layout : L R<br>
Sampling rate : 48.0 kHz<br>
Frame rate : 46.875 FPS (1024 SPF)<br>
Compression mode : Lossy<br>
Stream size : 6.43 MiB (4%)<br>
Language : English<br>
Default : Yes<br>
Alternate group : 2<br>
Encoded date : 2024-04-19 23:53:33 UTC<br>
Tagged date : 2024-04-20 06:11:47 UTC</div>
</div><br>
Taylor Swift - Florida!!! (feat. Florence + the Machine) [Lyric Video]<br>
<img src="https://imgur.com/nHwbHT0.jpg" class="bbCodeImage LbImage" alt="[​IMG]" data-url="https://imgur.com/nHwbHT0.jpg" style=""><br>
<div class="ToggleTriggerAnchor bbCodeSpoilerContainer">
<button type="button" class="button bbCodeSpoilerButton ToggleTrigger Tooltip JsOnly" data-target="> .SpoilerTarget"><span>Spoiler: <span class="SpoilerTitle">MEDIA INFO</span></span></button>
<div class="SpoilerTarget bbCodeSpoilerText">General<br>
Complete name : Taylor Swift - Florida!!! (feat. Florence + the Machine) [Lyric Video] [1742249027] [E].mp4<br>
Format : MPEG-4<br>
Format profile : Base Media<br>
Codec ID : isom (isom/iso4)<br>
File size : 257 MiB<br>
Duration : 3 min 39 s<br>
Overall bit rate mode : Variable<br>
Overall bit rate : 9 798 kb/s<br>
Frame rate : 29.970 FPS<br>
Movie name : Florida!!! (feat. Florence + the Machine) [Lyric Video]<br>
Performer : Taylor Swift<br>
Genre : Pop<br>
ContentType : Music Video<br>
Recorded date : 2024-04-19<br>
Encoded date : 2024-04-20 06:13:34 UTC<br>
Tagged date : 2024-04-20 06:13:34 UTC<br>
ISRC : USUMV2400567<br>
Cover : Yes<br>
Rating : Explicit<br>
<br>
Video<br>
ID : 1<br>
Format : AVC<br>
Format/Info : Advanced Video Codec<br>
Format profile : High@L4<br>
Format settings : CABAC / 4 Ref Frames<br>
Format settings, CABAC : Yes<br>
Format settings, Reference fra : 4 frames<br>
Codec ID : avc1<br>
Codec ID/Info : Advanced Video Coding<br>
Duration : 3 min 39 s<br>
Bit rate : 9 527 kb/s<br>
Maximum bit rate : 21.3 Mb/s<br>
Width : 1 920 pixels<br>
Height : 1 080 pixels<br>
Display aspect ratio : 16:9<br>
Frame rate mode : Constant<br>
Frame rate : 29.970 (30000/1001) FPS<br>
Color space : YUV<br>
Chroma subsampling : 4:2:0<br>
Bit depth : 8 bits<br>
Scan type : Progressive<br>
Bits/(Pixel*Frame) : 0.153<br>
Stream size : 249 MiB (97%)<br>
Default : Yes<br>
Alternate group : 1<br>
Encoded date : 2024-04-19 23:51:48 UTC<br>
Tagged date : 2024-04-20 06:13:34 UTC<br>
Color range : Limited<br>
Color primaries : BT.709<br>
Transfer characteristics : BT.709<br>
Matrix coefficients : BT.709<br>
Codec configuration box : avcC<br>
<br>
Audio<br>
ID : 2<br>
Format : AAC LC<br>
Format/Info : Advanced Audio Codec Low Complexity<br>
Codec ID : mp4a-40-2<br>
Duration : 3 min 39 s<br>
Duration_LastFrame : -13 ms<br>
Bit rate mode : Variable<br>
Bit rate : 253 kb/s<br>
Maximum bit rate : 312 kb/s<br>
Channel(s) : 2 channels<br>
Channel layout : L R<br>
Sampling rate : 48.0 kHz<br>
Frame rate : 46.875 FPS (1024 SPF)<br>
Compression mode : Lossy<br>
Stream size : 6.63 MiB (3%)<br>
Language : English<br>
Default : Yes<br>
Alternate group : 2<br>
Encoded date : 2024-04-19 23:51:32 UTC<br>
Tagged date : 2024-04-20 06:13:34 UTC</div>
</div><br>
Taylor Swift - Guilty as Sin (Lyric Video)<br>
<img src="https://imgur.com/StElsVS.jpg" class="bbCodeImage LbImage" alt="[​IMG]" data-url="https://imgur.com/StElsVS.jpg" style=""><br>
<div class="ToggleTriggerAnchor bbCodeSpoilerContainer">
<button type="button" class="button bbCodeSpoilerButton ToggleTrigger Tooltip JsOnly" data-target="> .SpoilerTarget"><span>Spoiler: <span class="SpoilerTitle">MEDIA INFO</span></span></button>
<div class="SpoilerTarget bbCodeSpoilerText">General<br>
Complete name : Taylor Swift - Guilty as Sin (Lyric Video) [1742250408].mp4<br>
Format : MPEG-4<br>
Format profile : Base Media<br>
Codec ID : isom (isom/iso4)<br>
File size : 210 MiB<br>
Duration : 4 min 18 s<br>
Overall bit rate mode : Variable<br>
Overall bit rate : 6 790 kb/s<br>
Frame rate : 29.970 FPS<br>
Movie name : Guilty as Sin? (Lyric Video)<br>
Performer : Taylor Swift<br>
Genre : Pop<br>
ContentType : Music Video<br>
Recorded date : 2024-04-19<br>
Encoded date : 2024-04-20 06:16:50 UTC<br>
Tagged date : 2024-04-20 06:16:50 UTC<br>
ISRC : USUMV2400568<br>
Cover : Yes<br>
<br>
Video<br>
ID : 1<br>
Format : AVC<br>
Format/Info : Advanced Video Codec<br>
Format profile : High@L4<br>
Format settings : CABAC / 4 Ref Frames<br>
Format settings, CABAC : Yes<br>
Format settings, Reference fra : 4 frames<br>
Codec ID : avc1<br>
Codec ID/Info : Advanced Video Coding<br>
Duration : 4 min 18 s<br>
Bit rate : 6 516 kb/s<br>
Maximum bit rate : 19.4 Mb/s<br>
Width : 1 920 pixels<br>
Height : 1 080 pixels<br>
Display aspect ratio : 16:9<br>
Frame rate mode : Constant<br>
Frame rate : 29.970 (30000/1001) FPS<br>
Color space : YUV<br>
Chroma subsampling : 4:2:0<br>
Bit depth : 8 bits<br>
Scan type : Progressive<br>
Bits/(Pixel*Frame) : 0.105<br>
Stream size : 201 MiB (96%)<br>
Default : Yes<br>
Alternate group : 1<br>
Encoded date : 2024-04-20 00:50:15 UTC<br>
Tagged date : 2024-04-20 06:16:51 UTC<br>
Color range : Limited<br>
Color primaries : BT.709<br>
Transfer characteristics : BT.709<br>
Matrix coefficients : BT.709<br>
Codec configuration box : avcC<br>
<br>
Audio<br>
ID : 2<br>
Format : AAC LC<br>
Format/Info : Advanced Audio Codec Low Complexity<br>
Codec ID : mp4a-40-2<br>
Duration : 4 min 18 s<br>
Duration_LastFrame : -13 ms<br>
Bit rate mode : Variable<br>
Bit rate : 252 kb/s<br>
Maximum bit rate : 307 kb/s<br>
Channel(s) : 2 channels<br>
Channel layout : L R<br>
Sampling rate : 48.0 kHz<br>
Frame rate : 46.875 FPS (1024 SPF)<br>
Compression mode : Lossy<br>
Stream size : 7.79 MiB (4%)<br>
Language : English<br>
Default : Yes<br>
Alternate group : 2<br>
Encoded date : 2024-04-20 00:50:07 UTC<br>
Tagged date : 2024-04-20 06:16:51 UTC</div>
</div><br>
Taylor Swift - Who’s Afraid of Little Old Me (Lyric Video)<br>
<img src="https://imgur.com/f6UPUrA.jpg" class="bbCodeImage LbImage" alt="[​IMG]" data-url="https://imgur.com/f6UPUrA.jpg" style=""><br>
<div class="ToggleTriggerAnchor bbCodeSpoilerContainer">
<button type="button" class="button bbCodeSpoilerButton ToggleTrigger Tooltip JsOnly" data-target="> .SpoilerTarget"><span>Spoiler: <span class="SpoilerTitle">MEDIA INFO</span></span></button>
<div class="SpoilerTarget bbCodeSpoilerText">General<br>
Complete name : Taylor Swift - Who’s Afraid of Little Old Me (Lyric Video) [1742253005].mp4<br>
Format : MPEG-4<br>
Format profile : Base Media<br>
Codec ID : isom (isom/iso4)<br>
File size : 279 MiB<br>
Duration : 5 min 38 s<br>
Overall bit rate mode : Variable<br>
Overall bit rate : 6 903 kb/s<br>
Frame rate : 29.970 FPS<br>
Movie name : Who’s Afraid of Little Old Me? (Lyric Video)<br>
Performer : Taylor Swift<br>
Genre : Pop<br>
ContentType : Music Video<br>
Recorded date : 2024-04-19<br>
Encoded date : 2024-04-20 06:20:07 UTC<br>
Tagged date : 2024-04-20 06:20:07 UTC<br>
ISRC : USUMV2400569<br>
Cover : Yes<br>
<br>
Video<br>
ID : 1<br>
Format : AVC<br>
Format/Info : Advanced Video Codec<br>
Format profile : High@L4<br>
Format settings : CABAC / 4 Ref Frames<br>
Format settings, CABAC : Yes<br>
Format settings, Reference fra : 4 frames<br>
Codec ID : avc1<br>
Codec ID/Info : Advanced Video Coding<br>
Duration : 5 min 38 s<br>
Bit rate : 6 635 kb/s<br>
Maximum bit rate : 11.3 Mb/s<br>
Width : 1 920 pixels<br>
Height : 1 080 pixels<br>
Display aspect ratio : 16:9<br>
Frame rate mode : Constant<br>
Frame rate : 29.970 (30000/1001) FPS<br>
Color space : YUV<br>
Chroma subsampling : 4:2:0<br>
Bit depth : 8 bits<br>
Scan type : Progressive<br>
Bits/(Pixel*Frame) : 0.107<br>
Stream size : 268 MiB (96%)<br>
Default : Yes<br>
Alternate group : 1<br>
Encoded date : 2024-04-20 02:41:20 UTC<br>
Tagged date : 2024-04-20 06:20:08 UTC<br>
Color range : Limited<br>
Color primaries : BT.709<br>
Transfer characteristics : BT.709<br>
Matrix coefficients : BT.709<br>
Codec configuration box : avcC<br>
<br>
Audio<br>
ID : 2<br>
Format : AAC LC<br>
Format/Info : Advanced Audio Codec Low Complexity<br>
Codec ID : mp4a-40-2<br>
Duration : 5 min 38 s<br>
Duration_LastFrame : -10 ms<br>
Bit rate mode : Variable<br>
Bit rate : 252 kb/s<br>
Maximum bit rate : 324 kb/s<br>
Channel(s) : 2 channels<br>
Channel layout : L R<br>
Sampling rate : 48.0 kHz<br>
Frame rate : 46.875 FPS (1024 SPF)<br>
Compression mode : Lossy<br>
Stream size : 10.2 MiB (4%)<br>
Language : English<br>
Default : Yes<br>
Alternate group : 2<br>
Encoded date : 2024-04-20 02:40:44 UTC<br>
Tagged date : 2024-04-20 06:20:08 UTC</div>
</div><br>
Taylor Swift - I Can Fix Him (No Really I Can) [Lyric Video]<br>
<img src="https://imgur.com/napXnXv.jpg" class="bbCodeImage LbImage" alt="[​IMG]" data-url="https://imgur.com/napXnXv.jpg" style=""><br>
<div class="ToggleTriggerAnchor bbCodeSpoilerContainer">
<button type="button" class="button bbCodeSpoilerButton ToggleTrigger Tooltip JsOnly" data-target="> .SpoilerTarget"><span>Spoiler: <span class="SpoilerTitle">MEDIA INFO</span></span></button>
<div class="SpoilerTarget bbCodeSpoilerText">General<br>
Complete name : Taylor Swift - I Can Fix Him (No Really I Can) [Lyric Video] [1742250273].mp4<br>
Format : MPEG-4<br>
Format profile : Base Media<br>
Codec ID : isom (isom/iso4)<br>
File size : 132 MiB<br>
Duration : 2 min 40 s<br>
Overall bit rate mode : Variable<br>
Overall bit rate : 6 875 kb/s<br>
Frame rate : 29.970 FPS<br>
Movie name : I Can Fix Him (No Really I Can) [Lyric Video]<br>
Performer : Taylor Swift<br>
Genre : Pop<br>
ContentType : Music Video<br>
Recorded date : 2024-04-19<br>
Encoded date : 2024-04-20 06:21:43 UTC<br>
Tagged date : 2024-04-20 06:21:43 UTC<br>
ISRC : USUMV2400570<br>
Cover : Yes<br>
<br>
Video<br>
ID : 1<br>
Format : AVC<br>
Format/Info : Advanced Video Codec<br>
Format profile : High@L4<br>
Format settings : CABAC / 4 Ref Frames<br>
Format settings, CABAC : Yes<br>
Format settings, Reference fra : 4 frames<br>
Codec ID : avc1<br>
Codec ID/Info : Advanced Video Coding<br>
Duration : 2 min 40 s<br>
Bit rate : 6 606 kb/s<br>
Maximum bit rate : 11.3 Mb/s<br>
Width : 1 920 pixels<br>
Height : 1 080 pixels<br>
Display aspect ratio : 16:9<br>
Frame rate mode : Constant<br>
Frame rate : 29.970 (30000/1001) FPS<br>
Color space : YUV<br>
Chroma subsampling : 4:2:0<br>
Bit depth : 8 bits<br>
Scan type : Progressive<br>
Bits/(Pixel*Frame) : 0.106<br>
Stream size : 127 MiB (96%)<br>
Default : Yes<br>
Alternate group : 1<br>
Encoded date : 2024-04-19 23:53:30 UTC<br>
Tagged date : 2024-04-20 06:21:44 UTC<br>
Color range : Limited<br>
Color primaries : BT.709<br>
Transfer characteristics : BT.709<br>
Matrix coefficients : BT.709<br>
Codec configuration box : avcC<br>
<br>
Audio<br>
ID : 2<br>
Format : AAC LC<br>
Format/Info : Advanced Audio Codec Low Complexity<br>
Codec ID : mp4a-40-2<br>
Duration : 2 min 40 s<br>
Duration_LastFrame : -8 ms<br>
Bit rate mode : Variable<br>
Bit rate : 250 kb/s<br>
Maximum bit rate : 316 kb/s<br>
Channel(s) : 2 channels<br>
Channel layout : L R<br>
Sampling rate : 48.0 kHz<br>
Frame rate : 46.875 FPS (1024 SPF)<br>
Compression mode : Lossy<br>
Stream size : 4.80 MiB (4%)<br>
Language : English<br>
Default : Yes<br>
Alternate group : 2<br>
Encoded date : 2024-04-19 23:53:28 UTC<br>
Tagged date : 2024-04-20 06:21:44 UTC</div>
</div><br>
Taylor Swift - loml (Lyric Video)<br>
<img src="https://imgur.com/70N29BV.jpg" class="bbCodeImage LbImage" alt="[​IMG]" data-url="https://imgur.com/70N29BV.jpg" style=""><br>
<div class="ToggleTriggerAnchor bbCodeSpoilerContainer">
<button type="button" class="button bbCodeSpoilerButton ToggleTrigger Tooltip JsOnly" data-target="> .SpoilerTarget"><span>Spoiler: <span class="SpoilerTitle">MEDIA INFO</span></span></button>
<div class="SpoilerTarget bbCodeSpoilerText">General<br>
Complete name : Taylor Swift - loml (Lyric Video) [1742252838] [E].mp4<br>
Format : MPEG-4<br>
Format profile : Base Media<br>
Codec ID : isom (isom/iso4)<br>
File size : 238 MiB<br>
Duration : 4 min 41 s<br>
Overall bit rate mode : Variable<br>
Overall bit rate : 7 098 kb/s<br>
Frame rate : 29.970 FPS<br>
Movie name : loml (Lyric Video)<br>
Performer : Taylor Swift<br>
Genre : Pop<br>
ContentType : Music Video<br>
Recorded date : 2024-04-19<br>
Encoded date : 2024-04-20 06:23:33 UTC<br>
Tagged date : 2024-04-20 06:23:33 UTC<br>
ISRC : USUMV2400571<br>
Cover : Yes<br>
Rating : Explicit<br>
<br>
Video<br>
ID : 1<br>
Format : AVC<br>
Format/Info : Advanced Video Codec<br>
Format profile : High@L4<br>
Format settings : CABAC / 4 Ref Frames<br>
Format settings, CABAC : Yes<br>
Format settings, Reference fra : 4 frames<br>
Codec ID : avc1<br>
Codec ID/Info : Advanced Video Coding<br>
Duration : 4 min 41 s<br>
Bit rate : 6 829 kb/s<br>
Maximum bit rate : 13.1 Mb/s<br>
Width : 1 920 pixels<br>
Height : 1 080 pixels<br>
Display aspect ratio : 16:9<br>
Frame rate mode : Constant<br>
Frame rate : 29.970 (30000/1001) FPS<br>
Color space : YUV<br>
Chroma subsampling : 4:2:0<br>
Bit depth : 8 bits<br>
Scan type : Progressive<br>
Bits/(Pixel*Frame) : 0.110<br>
Stream size : 229 MiB (96%)<br>
Default : Yes<br>
Alternate group : 1<br>
Encoded date : 2024-04-19 23:59:03 UTC<br>
Tagged date : 2024-04-20 06:23:33 UTC<br>
Color range : Limited<br>
Color primaries : BT.709<br>
Transfer characteristics : BT.709<br>
Matrix coefficients : BT.709<br>
Codec configuration box : avcC<br>
<br>
Audio<br>
ID : 2<br>
Format : AAC LC<br>
Format/Info : Advanced Audio Codec Low Complexity<br>
Codec ID : mp4a-40-2<br>
Duration : 4 min 41 s<br>
Duration_LastFrame : -7 ms<br>
Bit rate mode : Variable<br>
Bit rate : 250 kb/s<br>
Maximum bit rate : 312 kb/s<br>
Channel(s) : 2 channels<br>
Channel layout : L R<br>
Sampling rate : 48.0 kHz<br>
Frame rate : 46.875 FPS (1024 SPF)<br>
Compression mode : Lossy<br>
Stream size : 8.39 MiB (4%)<br>
Language : English<br>
Default : Yes<br>
Alternate group : 2<br>
Encoded date : 2024-04-19 23:58:50 UTC<br>
Tagged date : 2024-04-20 06:23:33 UTC</div>
</div><br>
Taylor Swift - I Can Do It With a Broken Heart (Lyric Video)<br>
<img src="https://imgur.com/IMkbJlD.jpg" class="bbCodeImage LbImage" alt="[​IMG]" data-url="https://imgur.com/IMkbJlD.jpg" style=""><br>
<div class="ToggleTriggerAnchor bbCodeSpoilerContainer">
<button type="button" class="button bbCodeSpoilerButton ToggleTrigger Tooltip JsOnly" data-target="> .SpoilerTarget"><span>Spoiler: <span class="SpoilerTitle">MEDIA INFO</span></span></button>
<div class="SpoilerTarget bbCodeSpoilerText">General<br>
Complete name : Taylor Swift - I Can Do It With a Broken Heart (Lyric Video) [1742259374] [E].mp4<br>
Format : MPEG-4<br>
Format profile : Base Media<br>
Codec ID : isom (isom/iso4)<br>
File size : 180 MiB<br>
Duration : 3 min 42 s<br>
Overall bit rate mode : Variable<br>
Overall bit rate : 6 792 kb/s<br>
Frame rate : 29.970 FPS<br>
Movie name : I Can Do It With a Broken Heart (Lyric Video)<br>
Performer : Taylor Swift<br>
Genre : Pop<br>
ContentType : Music Video<br>
Recorded date : 2024-04-19<br>
Encoded date : 2024-04-20 06:28:03 UTC<br>
Tagged date : 2024-04-20 06:28:03 UTC<br>
ISRC : USUMV2400572<br>
Cover : Yes<br>
Rating : Explicit<br>
<br>
Video<br>
ID : 1<br>
Format : AVC<br>
Format/Info : Advanced Video Codec<br>
Format profile : High@L4<br>
Format settings : CABAC / 4 Ref Frames<br>
Format settings, CABAC : Yes<br>
Format settings, Reference fra : 4 frames<br>
Codec ID : avc1<br>
Codec ID/Info : Advanced Video Coding<br>
Duration : 3 min 42 s<br>
Bit rate : 6 516 kb/s<br>
Maximum bit rate : 18.0 Mb/s<br>
Width : 1 920 pixels<br>
Height : 1 080 pixels<br>
Display aspect ratio : 16:9<br>
Frame rate mode : Constant<br>
Frame rate : 29.970 (30000/1001) FPS<br>
Color space : YUV<br>
Chroma subsampling : 4:2:0<br>
Bit depth : 8 bits<br>
Scan type : Progressive<br>
Bits/(Pixel*Frame) : 0.105<br>
Stream size : 173 MiB (96%)<br>
Default : Yes<br>
Alternate group : 1<br>
Encoded date : 2024-04-20 02:49:03 UTC<br>
Tagged date : 2024-04-20 06:28:03 UTC<br>
Color range : Limited<br>
Color primaries : BT.709<br>
Transfer characteristics : BT.709<br>
Matrix coefficients : BT.709<br>
Codec configuration box : avcC<br>
<br>
Audio<br>
ID : 2<br>
Format : AAC LC<br>
Format/Info : Advanced Audio Codec Low Complexity<br>
Codec ID : mp4a-40-2<br>
Duration : 3 min 42 s<br>
Duration_LastFrame : -6 ms<br>
Bit rate mode : Variable<br>
Bit rate : 253 kb/s<br>
Maximum bit rate : 306 kb/s<br>
Channel(s) : 2 channels<br>
Channel layout : L R<br>
Sampling rate : 48.0 kHz<br>
Frame rate : 46.875 FPS (1024 SPF)<br>
Compression mode : Lossy<br>
Stream size : 6.71 MiB (4%)<br>
Language : English<br>
Default : Yes<br>
Alternate group : 2<br>
Encoded date : 2024-04-20 02:48:47 UTC<br>
Tagged date : 2024-04-20 06:28:03 UTC</div>
</div><br>
Taylor Swift - The Smallest Man Who Ever Lived (Lyric Video)<br>
<img src="https://imgur.com/wuhM3Nf.jpg" class="bbCodeImage LbImage" alt="[​IMG]" data-url="https://imgur.com/wuhM3Nf.jpg" style=""><br>
<div class="ToggleTriggerAnchor bbCodeSpoilerContainer">
<button type="button" class="button bbCodeSpoilerButton ToggleTrigger Tooltip JsOnly" data-target="> .SpoilerTarget"><span>Spoiler: <span class="SpoilerTitle">MEDIA INFO</span></span></button>
<div class="SpoilerTarget bbCodeSpoilerText">General<br>
Complete name : Taylor Swift - The Smallest Man Who Ever Lived (Lyric Video) [1742258922] [E].mp4<br>
Format : MPEG-4<br>
Format profile : Base Media<br>
Codec ID : isom (isom/iso4)<br>
File size : 212 MiB<br>
Duration : 4 min 9 s<br>
Overall bit rate mode : Variable<br>
Overall bit rate : 7 105 kb/s<br>
Frame rate : 29.970 FPS<br>
Movie name : The Smallest Man Who Ever Lived (Lyric Video)<br>
Performer : Taylor Swift<br>
Genre : Pop<br>
ContentType : Music Video<br>
Recorded date : 2024-04-19<br>
Encoded date : 2024-04-20 06:30:35 UTC<br>
Tagged date : 2024-04-20 06:30:35 UTC<br>
ISRC : USUMV2400573<br>
Cover : Yes<br>
Rating : Explicit<br>
<br>
Video<br>
ID : 1<br>
Format : AVC<br>
Format/Info : Advanced Video Codec<br>
Format profile : High@L4<br>
Format settings : CABAC / 4 Ref Frames<br>
Format settings, CABAC : Yes<br>
Format settings, Reference fra : 4 frames<br>
Codec ID : avc1<br>
Codec ID/Info : Advanced Video Coding<br>
Duration : 4 min 9 s<br>
Bit rate : 6 841 kb/s<br>
Maximum bit rate : 18.7 Mb/s<br>
Width : 1 920 pixels<br>
Height : 1 080 pixels<br>
Display aspect ratio : 16:9<br>
Frame rate mode : Constant<br>
Frame rate : 29.970 (30000/1001) FPS<br>
Color space : YUV<br>
Chroma subsampling : 4:2:0<br>
Bit depth : 8 bits<br>
Scan type : Progressive<br>
Bits/(Pixel*Frame) : 0.110<br>
Stream size : 204 MiB (96%)<br>
Default : Yes<br>
Alternate group : 1<br>
Encoded date : 2024-04-20 02:42:42 UTC<br>
Tagged date : 2024-04-20 06:30:35 UTC<br>
Color range : Limited<br>
Color primaries : BT.709<br>
Transfer characteristics : BT.709<br>
Matrix coefficients : BT.709<br>
Codec configuration box : avcC<br>
<br>
Audio<br>
ID : 2<br>
Format : AAC LC<br>
Format/Info : Advanced Audio Codec Low Complexity<br>
Codec ID : mp4a-40-2<br>
Duration : 4 min 9 s<br>
Duration_LastFrame : -18 ms<br>
Bit rate mode : Variable<br>
Bit rate : 249 kb/s<br>
Maximum bit rate : 349 kb/s<br>
Channel(s) : 2 channels<br>
Channel layout : L R<br>
Sampling rate : 48.0 kHz<br>
Frame rate : 46.875 FPS (1024 SPF)<br>
Compression mode : Lossy<br>
Stream size : 7.41 MiB (4%)<br>
Language : English<br>
Default : Yes<br>
Alternate group : 2<br>
Encoded date : 2024-04-20 02:42:35 UTC<br>
Tagged date : 2024-04-20 06:30:35 UTC</div>
</div><br>
Taylor Swift - The Alchemy (Lyric Video)<br>
<img src="https://imgur.com/oV4wQKa.jpg" class="bbCodeImage LbImage" alt="[​IMG]" data-url="https://imgur.com/oV4wQKa.jpg" style=""><br>
<div class="ToggleTriggerAnchor bbCodeSpoilerContainer">
<button type="button" class="button bbCodeSpoilerButton ToggleTrigger Tooltip JsOnly" data-target="> .SpoilerTarget"><span>Spoiler: <span class="SpoilerTitle">MEDIA INFO</span></span></button>
<div class="SpoilerTarget bbCodeSpoilerText">General<br>
Complete name : Taylor Swift - The Alchemy (Lyric Video) [1742252578].mp4<br>
Format : MPEG-4<br>
Format profile : Base Media<br>
Codec ID : isom (isom/iso4)<br>
File size : 179 MiB<br>
Duration : 3 min 21 s<br>
Overall bit rate mode : Variable<br>
Overall bit rate : 7 422 kb/s<br>
Frame rate : 29.970 FPS<br>
Movie name : The Alchemy (Lyric Video)<br>
Performer : Taylor Swift<br>
Genre : Pop<br>
ContentType : Music Video<br>
Recorded date : 2024-04-19<br>
Encoded date : 2024-04-20 06:33:11 UTC<br>
Tagged date : 2024-04-20 06:33:11 UTC<br>
ISRC : USUMV2400574<br>
Cover : Yes<br>
<br>
Video<br>
ID : 1<br>
Format : AVC<br>
Format/Info : Advanced Video Codec<br>
Format profile : High@L4<br>
Format settings : CABAC / 4 Ref Frames<br>
Format settings, CABAC : Yes<br>
Format settings, Reference fra : 4 frames<br>
Codec ID : avc1<br>
Codec ID/Info : Advanced Video Coding<br>
Duration : 3 min 21 s<br>
Bit rate : 7 152 kb/s<br>
Maximum bit rate : 13.7 Mb/s<br>
Width : 1 920 pixels<br>
Height : 1 080 pixels<br>
Display aspect ratio : 16:9<br>
Frame rate mode : Constant<br>
Frame rate : 29.970 (30000/1001) FPS<br>
Color space : YUV<br>
Chroma subsampling : 4:2:0<br>
Bit depth : 8 bits<br>
Scan type : Progressive<br>
Bits/(Pixel*Frame) : 0.115<br>
Stream size : 172 MiB (96%)<br>
Default : Yes<br>
Alternate group : 1<br>
Encoded date : 2024-04-20 00:02:52 UTC<br>
Tagged date : 2024-04-20 06:33:12 UTC<br>
Color range : Limited<br>
Color primaries : BT.709<br>
Transfer characteristics : BT.709<br>
Matrix coefficients : BT.709<br>
Codec configuration box : avcC<br>
<br>
Audio<br>
ID : 2<br>
Format : AAC LC<br>
Format/Info : Advanced Audio Codec Low Complexity<br>
Codec ID : mp4a-40-2<br>
Duration : 3 min 21 s<br>
Duration_LastFrame : -6 ms<br>
Bit rate mode : Variable<br>
Bit rate : 251 kb/s<br>
Maximum bit rate : 346 kb/s<br>
Channel(s) : 2 channels<br>
Channel layout : L R<br>
Sampling rate : 48.0 kHz<br>
Frame rate : 46.875 FPS (1024 SPF)<br>
Compression mode : Lossy<br>
Stream size : 6.03 MiB (3%)<br>
Language : English<br>
Default : Yes<br>
Alternate group : 2<br>
Encoded date : 2024-04-20 00:02:49 UTC<br>
Tagged date : 2024-04-20 06:33:12 UTC</div>
</div><br>
Taylor Swift - Clara Bow (Lyric Video)<br>
<img src="https://imgur.com/BjHAj9c.jpg" class="bbCodeImage LbImage" alt="[​IMG]" data-url="https://imgur.com/BjHAj9c.jpg" style=""><br>
<div class="ToggleTriggerAnchor bbCodeSpoilerContainer">
<button type="button" class="button bbCodeSpoilerButton ToggleTrigger Tooltip JsOnly" data-target="> .SpoilerTarget"><span>Spoiler: <span class="SpoilerTitle">MEDIA INFO</span></span></button>
<div class="SpoilerTarget bbCodeSpoilerText">General<br>
Complete name : Taylor Swift - Clara Bow (Lyric Video) [1742247746].mp4<br>
Format : MPEG-4<br>
Format profile : Base Media<br>
Codec ID : isom (isom/iso4)<br>
File size : 182 MiB<br>
Duration : 3 min 41 s<br>
Overall bit rate mode : Variable<br>
Overall bit rate : 6 896 kb/s<br>
Frame rate : 29.970 FPS<br>
Movie name : Clara Bow (Lyric Video)<br>
Performer : Taylor Swift<br>
Genre : Pop<br>
ContentType : Music Video<br>
Recorded date : 2024-04-19<br>
Encoded date : 2024-04-20 06:34:31 UTC<br>
Tagged date : 2024-04-20 06:34:31 UTC<br>
ISRC : USUMV2400575<br>
Cover : Yes<br>
<br>
Video<br>
ID : 1<br>
Format : AVC<br>
Format/Info : Advanced Video Codec<br>
Format profile : High@L4<br>
Format settings : CABAC / 4 Ref Frames<br>
Format settings, CABAC : Yes<br>
Format settings, Reference fra : 4 frames<br>
Codec ID : avc1<br>
Codec ID/Info : Advanced Video Coding<br>
Duration : 3 min 41 s<br>
Bit rate : 6 630 kb/s<br>
Maximum bit rate : 10.4 Mb/s<br>
Width : 1 920 pixels<br>
Height : 1 080 pixels<br>
Display aspect ratio : 16:9<br>
Frame rate mode : Constant<br>
Frame rate : 29.970 (30000/1001) FPS<br>
Color space : YUV<br>
Chroma subsampling : 4:2:0<br>
Bit depth : 8 bits<br>
Scan type : Progressive<br>
Bits/(Pixel*Frame) : 0.107<br>
Stream size : 175 MiB (96%)<br>
Default : Yes<br>
Alternate group : 1<br>
Encoded date : 2024-04-19 23:46:03 UTC<br>
Tagged date : 2024-04-20 06:34:31 UTC<br>
Color range : Limited<br>
Color primaries : BT.709<br>
Transfer characteristics : BT.709<br>
Matrix coefficients : BT.709<br>
Codec configuration box : avcC<br>
<br>
Audio<br>
ID : 2<br>
Format : AAC LC<br>
Format/Info : Advanced Audio Codec Low Complexity<br>
Codec ID : mp4a-40-2<br>
Duration : 3 min 41 s<br>
Duration_LastFrame : -6 ms<br>
Bit rate mode : Variable<br>
Bit rate : 247 kb/s<br>
Maximum bit rate : 361 kb/s<br>
Channel(s) : 2 channels<br>
Channel layout : L R<br>
Sampling rate : 48.0 kHz<br>
Frame rate : 46.875 FPS (1024 SPF)<br>
Compression mode : Lossy<br>
Stream size : 6.53 MiB (4%)<br>
Language : English<br>
Default : Yes<br>
Alternate group : 2<br>
Encoded date : 2024-04-19 23:45:59 UTC<br>
Tagged date : 2024-04-20 06:34:31 UTC</div>
</div><br>
Taylor Swift - The Black Dog (Lyric Video)<br>
<img src="https://imgur.com/wfllyha.jpg" class="bbCodeImage LbImage" alt="[​IMG]" data-url="https://imgur.com/wfllyha.jpg" style=""><br>
<div class="ToggleTriggerAnchor bbCodeSpoilerContainer">
<button type="button" class="button bbCodeSpoilerButton ToggleTrigger Tooltip JsOnly" data-target="> .SpoilerTarget"><span>Spoiler: <span class="SpoilerTitle">MEDIA INFO</span></span></button>
<div class="SpoilerTarget bbCodeSpoilerText">General<br>
Complete name : Taylor Swift - The Black Dog (Lyric Video) [1742250401] [E].mp4<br>
Format : MPEG-4<br>
Format profile : Base Media<br>
Codec ID : isom (isom/iso4)<br>
File size : 203 MiB<br>
Duration : 4 min 3 s<br>
Overall bit rate mode : Variable<br>
Overall bit rate : 6 997 kb/s<br>
Frame rate : 29.970 FPS<br>
Movie name : The Black Dog (Lyric Video)<br>
Performer : Taylor Swift<br>
Genre : Pop<br>
ContentType : Music Video<br>
Recorded date : 2024-04-19<br>
Encoded date : 2024-04-20 06:38:25 UTC<br>
Tagged date : 2024-04-20 06:38:25 UTC<br>
ISRC : USUMV2400578<br>
Cover : Yes<br>
Rating : Explicit<br>
<br>
Video<br>
ID : 1<br>
Format : AVC<br>
Format/Info : Advanced Video Codec<br>
Format profile : High@L4<br>
Format settings : CABAC / 4 Ref Frames<br>
Format settings, CABAC : Yes<br>
Format settings, Reference fra : 4 frames<br>
Codec ID : avc1<br>
Codec ID/Info : Advanced Video Coding<br>
Duration : 4 min 3 s<br>
Bit rate : 6 728 kb/s<br>
Maximum bit rate : 14.2 Mb/s<br>
Width : 1 920 pixels<br>
Height : 1 080 pixels<br>
Display aspect ratio : 16:9<br>
Frame rate mode : Constant<br>
Frame rate : 29.970 (30000/1001) FPS<br>
Color space : YUV<br>
Chroma subsampling : 4:2:0<br>
Bit depth : 8 bits<br>
Scan type : Progressive<br>
Bits/(Pixel*Frame) : 0.108<br>
Stream size : 195 MiB (96%)<br>
Default : Yes<br>
Alternate group : 1<br>
Encoded date : 2024-04-19 23:56:58 UTC<br>
Tagged date : 2024-04-20 06:38:26 UTC<br>
Color range : Limited<br>
Color primaries : BT.709<br>
Transfer characteristics : BT.709<br>
Matrix coefficients : BT.709<br>
Codec configuration box : avcC<br>
<br>
Audio<br>
ID : 2<br>
Format : AAC LC<br>
Format/Info : Advanced Audio Codec Low Complexity<br>
Codec ID : mp4a-40-2<br>
Duration : 4 min 3 s<br>
Duration_LastFrame : -19 ms<br>
Bit rate mode : Variable<br>
Bit rate : 250 kb/s<br>
Maximum bit rate : 318 kb/s<br>
Channel(s) : 2 channels<br>
Channel layout : L R<br>
Sampling rate : 48.0 kHz<br>
Frame rate : 46.875 FPS (1024 SPF)<br>
Compression mode : Lossy<br>
Stream size : 7.25 MiB (4%)<br>
Language : English<br>
Default : Yes<br>
Alternate group : 2<br>
Encoded date : 2024-04-19 23:56:33 UTC<br>
Tagged date : 2024-04-20 06:38:26 UTC</div>
</div><br>
Taylor Swift - imgonnagetyouback (Lyric Video)<br>
<img src="https://imgur.com/6hz2EkX.jpg" class="bbCodeImage LbImage" alt="[​IMG]" data-url="https://imgur.com/6hz2EkX.jpg" style=""><br>
<div class="ToggleTriggerAnchor bbCodeSpoilerContainer">
<button type="button" class="button bbCodeSpoilerButton ToggleTrigger Tooltip JsOnly" data-target="> .SpoilerTarget"><span>Spoiler: <span class="SpoilerTitle">MEDIA INFO</span></span></button>
<div class="SpoilerTarget bbCodeSpoilerText">General<br>
Complete name : Taylor Swift - imgonnagetyouback (Lyric Video) [1742249243].mp4<br>
Format : MPEG-4<br>
Format profile : Base Media<br>
Codec ID : isom (isom/iso4)<br>
File size : 183 MiB<br>
Duration : 3 min 44 s<br>
Overall bit rate mode : Variable<br>
Overall bit rate : 6 838 kb/s<br>
Frame rate : 29.970 FPS<br>
Movie name : imgonnagetyouback (Lyric Video)<br>
Performer : Taylor Swift<br>
Genre : Pop<br>
ContentType : Music Video<br>
Recorded date : 2024-04-19<br>
Encoded date : 2024-04-20 06:39:41 UTC<br>
Tagged date : 2024-04-20 06:39:41 UTC<br>
ISRC : USUMV2400579<br>
Cover : Yes<br>
<br>
Video<br>
ID : 1<br>
Format : AVC<br>
Format/Info : Advanced Video Codec<br>
Format profile : High@L4<br>
Format settings : CABAC / 4 Ref Frames<br>
Format settings, CABAC : Yes<br>
Format settings, Reference fra : 4 frames<br>
Codec ID : avc1<br>
Codec ID/Info : Advanced Video Coding<br>
Duration : 3 min 44 s<br>
Bit rate : 6 561 kb/s<br>
Maximum bit rate : 14.1 Mb/s<br>
Width : 1 920 pixels<br>
Height : 1 080 pixels<br>
Display aspect ratio : 16:9<br>
Frame rate mode : Constant<br>
Frame rate : 29.970 (30000/1001) FPS<br>
Color space : YUV<br>
Chroma subsampling : 4:2:0<br>
Bit depth : 8 bits<br>
Scan type : Progressive<br>
Bits/(Pixel*Frame) : 0.106<br>
Stream size : 176 MiB (96%)<br>
Default : Yes<br>
Alternate group : 1<br>
Encoded date : 2024-04-20 00:05:10 UTC<br>
Tagged date : 2024-04-20 06:39:42 UTC<br>
Color range : Limited<br>
Color primaries : BT.709<br>
Transfer characteristics : BT.709<br>
Matrix coefficients : BT.709<br>
Codec configuration box : avcC<br>
<br>
Audio<br>
ID : 2<br>
Format : AAC LC<br>
Format/Info : Advanced Audio Codec Low Complexity<br>
Codec ID : mp4a-40-2<br>
Duration : 3 min 44 s<br>
Duration_LastFrame : -17 ms<br>
Bit rate mode : Variable<br>
Bit rate : 253 kb/s<br>
Maximum bit rate : 331 kb/s<br>
Channel(s) : 2 channels<br>
Channel layout : L R<br>
Sampling rate : 48.0 kHz<br>
Frame rate : 46.875 FPS (1024 SPF)<br>
Compression mode : Lossy<br>
Stream size : 6.79 MiB (4%)<br>
Language : English<br>
Default : Yes<br>
Alternate group : 2<br>
Encoded date : 2024-04-20 00:05:07 UTC<br>
Tagged date : 2024-04-20 06:39:42 UTC</div>
</div><br>
Taylor Swift - The Albatross (Lyric Video)<br>
<img src="https://imgur.com/dYWZ5Up.jpg" class="bbCodeImage LbImage" alt="[​IMG]" data-url="https://imgur.com/dYWZ5Up.jpg" style=""><br>
<div class="ToggleTriggerAnchor bbCodeSpoilerContainer">
<button type="button" class="button bbCodeSpoilerButton ToggleTrigger Tooltip JsOnly" data-target="> .SpoilerTarget"><span>Spoiler: <span class="SpoilerTitle">MEDIA INFO</span></span></button>
<div class="SpoilerTarget bbCodeSpoilerText">General<br>
Complete name : Taylor Swift - The Albatross (Lyric Video) [1742252699].mp4<br>
Format : MPEG-4<br>
Format profile : Base Media<br>
Codec ID : isom (isom/iso4)<br>
File size : 158 MiB<br>
Duration : 3 min 8 s<br>
Overall bit rate mode : Variable<br>
Overall bit rate : 7 046 kb/s<br>
Frame rate : 29.970 FPS<br>
Movie name : The Albatross (Lyric Video)<br>
Performer : Taylor Swift<br>
Genre : Pop<br>
ContentType : Music Video<br>
Recorded date : 2024-04-19<br>
Encoded date : 2024-04-20 06:40:29 UTC<br>
Tagged date : 2024-04-20 06:40:29 UTC<br>
ISRC : USUMV2400580<br>
Cover : Yes<br>
<br>
Video<br>
ID : 1<br>
Format : AVC<br>
Format/Info : Advanced Video Codec<br>
Format profile : High@L4<br>
Format settings : CABAC / 4 Ref Frames<br>
Format settings, CABAC : Yes<br>
Format settings, Reference fra : 4 frames<br>
Codec ID : avc1<br>
Codec ID/Info : Advanced Video Coding<br>
Duration : 3 min 8 s<br>
Bit rate : 6 774 kb/s<br>
Maximum bit rate : 10.6 Mb/s<br>
Width : 1 920 pixels<br>
Height : 1 080 pixels<br>
Display aspect ratio : 16:9<br>
Frame rate mode : Constant<br>
Frame rate : 29.970 (30000/1001) FPS<br>
Color space : YUV<br>
Chroma subsampling : 4:2:0<br>
Bit depth : 8 bits<br>
Scan type : Progressive<br>
Bits/(Pixel*Frame) : 0.109<br>
Stream size : 152 MiB (96%)<br>
Default : Yes<br>
Alternate group : 1<br>
Encoded date : 2024-04-19 23:52:35 UTC<br>
Tagged date : 2024-04-20 06:40:29 UTC<br>
Color range : Limited<br>
Color primaries : BT.709<br>
Transfer characteristics : BT.709<br>
Matrix coefficients : BT.709<br>
Codec configuration box : avcC<br>
<br>
Audio<br>
ID : 2<br>
Format : AAC LC<br>
Format/Info : Advanced Audio Codec Low Complexity<br>
Codec ID : mp4a-40-2<br>
Duration : 3 min 8 s<br>
Duration_LastFrame : -19 ms<br>
Bit rate mode : Variable<br>
Bit rate : 252 kb/s<br>
Maximum bit rate : 310 kb/s<br>
Channel(s) : 2 channels<br>
Channel layout : L R<br>
Sampling rate : 48.0 kHz<br>
Frame rate : 46.875 FPS (1024 SPF)<br>
Compression mode : Lossy<br>
Stream size : 5.66 MiB (4%)<br>
Language : English<br>
Default : Yes<br>
Alternate group : 2<br>
Encoded date : 2024-04-19 23:52:31 UTC<br>
Tagged date : 2024-04-20 06:40:29 UTC</div>
</div><br>
Taylor Swift - Chloe or Sam or Sophia or Marcus (Lyric Video)<br>
<img src="https://imgur.com/TgVwSKi.jpg" class="bbCodeImage LbImage" alt="[​IMG]" data-url="https://imgur.com/TgVwSKi.jpg" style=""><br>
<div class="ToggleTriggerAnchor bbCodeSpoilerContainer">
<button type="button" class="button bbCodeSpoilerButton ToggleTrigger Tooltip JsOnly" data-target="> .SpoilerTarget"><span>Spoiler: <span class="SpoilerTitle">MEDIA INFO</span></span></button>
<div class="SpoilerTarget bbCodeSpoilerText">General<br>
Complete name : Taylor Swift - Chloe or Sam or Sophia or Marcus (Lyric Video) [1742248328].mp4<br>
Format : MPEG-4<br>
Format profile : Base Media<br>
Codec ID : isom (isom/iso4)<br>
File size : 187 MiB<br>
Duration : 3 min 38 s<br>
Overall bit rate mode : Variable<br>
Overall bit rate : 7 159 kb/s<br>
Frame rate : 29.970 FPS<br>
Movie name : Chloe or Sam or Sophia or Marcus (Lyric Video)<br>
Performer : Taylor Swift<br>
Genre : Pop<br>
ContentType : Music Video<br>
Recorded date : 2024-04-19<br>
Encoded date : 2024-04-20 06:41:18 UTC<br>
Tagged date : 2024-04-20 06:41:18 UTC<br>
ISRC : USUMV2400581<br>
Cover : Yes<br>
<br>
Video<br>
ID : 1<br>
Format : AVC<br>
Format/Info : Advanced Video Codec<br>
Format profile : High@L4<br>
Format settings : CABAC / 4 Ref Frames<br>
Format settings, CABAC : Yes<br>
Format settings, Reference fra : 4 frames<br>
Codec ID : avc1<br>
Codec ID/Info : Advanced Video Coding<br>
Duration : 3 min 38 s<br>
Bit rate : 6 886 kb/s<br>
Maximum bit rate : 12.5 Mb/s<br>
Width : 1 920 pixels<br>
Height : 1 080 pixels<br>
Display aspect ratio : 16:9<br>
Frame rate mode : Constant<br>
Frame rate : 29.970 (30000/1001) FPS<br>
Color space : YUV<br>
Chroma subsampling : 4:2:0<br>
Bit depth : 8 bits<br>
Scan type : Progressive<br>
Bits/(Pixel*Frame) : 0.111<br>
Stream size : 179 MiB (96%)<br>
Default : Yes<br>
Alternate group : 1<br>
Encoded date : 2024-04-19 23:59:14 UTC<br>
Tagged date : 2024-04-20 06:41:18 UTC<br>
Color range : Limited<br>
Color primaries : BT.709<br>
Transfer characteristics : BT.709<br>
Matrix coefficients : BT.709<br>
Codec configuration box : avcC<br>
<br>
Audio<br>
ID : 2<br>
Format : AAC LC<br>
Format/Info : Advanced Audio Codec Low Complexity<br>
Codec ID : mp4a-40-2<br>
Duration : 3 min 38 s<br>
Duration_LastFrame : -9 ms<br>
Bit rate mode : Variable<br>
Bit rate : 254 kb/s<br>
Maximum bit rate : 380 kb/s<br>
Channel(s) : 2 channels<br>
Channel layout : L R<br>
Sampling rate : 48.0 kHz<br>
Frame rate : 46.875 FPS (1024 SPF)<br>
Compression mode : Lossy<br>
Stream size : 6.61 MiB (4%)<br>
Language : English<br>
Default : Yes<br>
Alternate group : 2<br>
Encoded date : 2024-04-19 23:58:49 UTC<br>
Tagged date : 2024-04-20 06:41:18 UTC</div>
</div><br>
Taylor Swift - How Did It End (Lyric Video)<br>
<img src="https://imgur.com/Fqw3tIH.jpg" class="bbCodeImage LbImage" alt="[​IMG]" data-url="https://imgur.com/Fqw3tIH.jpg" style=""><br>
<div class="ToggleTriggerAnchor bbCodeSpoilerContainer">
<button type="button" class="button bbCodeSpoilerButton ToggleTrigger Tooltip JsOnly" data-target="> .SpoilerTarget"><span>Spoiler: <span class="SpoilerTitle">MEDIA INFO</span></span></button>
<div class="SpoilerTarget bbCodeSpoilerText">General<br>
Complete name : Taylor Swift - How Did It End (Lyric Video) [1742258630].mp4<br>
Format : MPEG-4<br>
Format profile : Base Media<br>
Codec ID : isom (isom/iso4)<br>
File size : 203 MiB<br>
Duration : 4 min 2 s<br>
Overall bit rate mode : Variable<br>
Overall bit rate : 7 027 kb/s<br>
Frame rate : 29.970 FPS<br>
Movie name : How Did It End? (Lyric Video)<br>
Performer : Taylor Swift<br>
Genre : Pop<br>
ContentType : Music Video<br>
Recorded date : 2024-04-19<br>
Encoded date : 2024-04-20 06:42:18 UTC<br>
Tagged date : 2024-04-20 06:42:18 UTC<br>
ISRC : USUMV2400582<br>
Cover : Yes<br>
<br>
Video<br>
ID : 1<br>
Format : AVC<br>
Format/Info : Advanced Video Codec<br>
Format profile : High@L4<br>
Format settings : CABAC / 4 Ref Frames<br>
Format settings, CABAC : Yes<br>
Format settings, Reference fra : 4 frames<br>
Codec ID : avc1<br>
Codec ID/Info : Advanced Video Coding<br>
Duration : 4 min 2 s<br>
Bit rate : 6 754 kb/s<br>
Maximum bit rate : 22.4 Mb/s<br>
Width : 1 920 pixels<br>
Height : 1 080 pixels<br>
Display aspect ratio : 16:9<br>
Frame rate mode : Constant<br>
Frame rate : 29.970 (30000/1001) FPS<br>
Color space : YUV<br>
Chroma subsampling : 4:2:0<br>
Bit depth : 8 bits<br>
Scan type : Progressive<br>
Bits/(Pixel*Frame) : 0.109<br>
Stream size : 195 MiB (96%)<br>
Default : Yes<br>
Alternate group : 1<br>
Encoded date : 2024-04-20 00:23:11 UTC<br>
Tagged date : 2024-04-20 06:42:18 UTC<br>
Color range : Limited<br>
Color primaries : BT.709<br>
Transfer characteristics : BT.709<br>
Matrix coefficients : BT.709<br>
Codec configuration box : avcC<br>
<br>
Audio<br>
ID : 2<br>
Format : AAC LC<br>
Format/Info : Advanced Audio Codec Low Complexity<br>
Codec ID : mp4a-40-2<br>
Duration : 4 min 2 s<br>
Duration_LastFrame : -11 ms<br>
Bit rate mode : Variable<br>
Bit rate : 252 kb/s<br>
Maximum bit rate : 338 kb/s<br>
Channel(s) : 2 channels<br>
Channel layout : L R<br>
Sampling rate : 48.0 kHz<br>
Frame rate : 46.875 FPS (1024 SPF)<br>
Compression mode : Lossy<br>
Stream size : 7.28 MiB (4%)<br>
Language : English<br>
Default : Yes<br>
Alternate group : 2<br>
Encoded date : 2024-04-20 00:23:03 UTC<br>
Tagged date : 2024-04-20 06:42:18 UTC</div>
</div><br>
Taylor Swift - So High School (Lyric Video)<br>
<img src="https://imgur.com/3Xpm3L4.jpg" class="bbCodeImage LbImage" alt="[​IMG]" data-url="https://imgur.com/3Xpm3L4.jpg" style=""><br>
<div class="ToggleTriggerAnchor bbCodeSpoilerContainer">
<button type="button" class="button bbCodeSpoilerButton ToggleTrigger Tooltip JsOnly" data-target="> .SpoilerTarget"><span>Spoiler: <span class="SpoilerTitle">MEDIA INFO</span></span></button>
<div class="SpoilerTarget bbCodeSpoilerText">General<br>
Complete name : Taylor Swift - So High School (Lyric Video) [1742250658].mp4<br>
Format : MPEG-4<br>
Format profile : Base Media<br>
Codec ID : isom (isom/iso4)<br>
File size : 193 MiB<br>
Duration : 3 min 54 s<br>
Overall bit rate mode : Variable<br>
Overall bit rate : 6 896 kb/s<br>
Frame rate : 29.970 FPS<br>
Movie name : So High School (Lyric Video)<br>
Performer : Taylor Swift<br>
Genre : Pop<br>
ContentType : Music Video<br>
Recorded date : 2024-04-19<br>
Encoded date : 2024-04-20 04:41:16 UTC<br>
Tagged date : 2024-04-20 04:41:16 UTC<br>
ISRC : USUMV2400583<br>
Cover : Yes<br>
<br>
Video<br>
ID : 1<br>
Format : AVC<br>
Format/Info : Advanced Video Codec<br>
Format profile : High@L4<br>
Format settings : CABAC / 4 Ref Frames<br>
Format settings, CABAC : Yes<br>
Format settings, Reference fra : 4 frames<br>
Codec ID : avc1<br>
Codec ID/Info : Advanced Video Coding<br>
Duration : 3 min 54 s<br>
Bit rate : 6 634 kb/s<br>
Maximum bit rate : 13.8 Mb/s<br>
Width : 1 920 pixels<br>
Height : 1 080 pixels<br>
Display aspect ratio : 16:9<br>
Frame rate mode : Constant<br>
Frame rate : 29.970 (30000/1001) FPS<br>
Color space : YUV<br>
Chroma subsampling : 4:2:0<br>
Bit depth : 8 bits<br>
Scan type : Progressive<br>
Bits/(Pixel*Frame) : 0.107<br>
Stream size : 185 MiB (96%)<br>
Default : Yes<br>
Alternate group : 1<br>
Encoded date : 2024-04-19 23:54:06 UTC<br>
Tagged date : 2024-04-20 04:41:17 UTC<br>
Color range : Limited<br>
Color primaries : BT.709<br>
Transfer characteristics : BT.709<br>
Matrix coefficients : BT.709<br>
Codec configuration box : avcC<br>
<br>
Audio<br>
ID : 2<br>
Format : AAC LC<br>
Format/Info : Advanced Audio Codec Low Complexity<br>
Codec ID : mp4a-40-2<br>
Duration : 3 min 54 s<br>
Duration_LastFrame : -13 ms<br>
Bit rate mode : Variable<br>
Bit rate : 246 kb/s<br>
Maximum bit rate : 318 kb/s<br>
Channel(s) : 2 channels<br>
Channel layout : L R<br>
Sampling rate : 48.0 kHz<br>
Frame rate : 46.875 FPS (1024 SPF)<br>
Compression mode : Lossy<br>
Stream size : 6.88 MiB (4%)<br>
Language : English<br>
Default : Yes<br>
Alternate group : 2<br>
Encoded date : 2024-04-19 23:54:01 UTC<br>
Tagged date : 2024-04-20 04:41:17 UTC</div>
</div><br>
Taylor Swift - I Hate It Here (Lyric Video)<br>
<img src="https://imgur.com/R75wwcR.jpg" class="bbCodeImage LbImage" alt="[​IMG]" data-url="https://imgur.com/R75wwcR.jpg" style=""><br>
<div class="ToggleTriggerAnchor bbCodeSpoilerContainer">
<button type="button" class="button bbCodeSpoilerButton ToggleTrigger Tooltip JsOnly" data-target="> .SpoilerTarget"><span>Spoiler: <span class="SpoilerTitle">MEDIA INFO</span></span></button>
<div class="SpoilerTarget bbCodeSpoilerText">General<br>
Complete name : Taylor Swift - I Hate It Here (Lyric Video) [1742248196].mp4<br>
Format : MPEG-4<br>
Format profile : Base Media<br>
Codec ID : isom (isom/iso4)<br>
File size : 206 MiB<br>
Duration : 4 min 7 s<br>
Overall bit rate mode : Variable<br>
Overall bit rate : 7 008 kb/s<br>
Frame rate : 29.970 FPS<br>
Movie name : I Hate It Here (Lyric Video)<br>
Performer : Taylor Swift<br>
Genre : Pop<br>
ContentType : Music Video<br>
Recorded date : 2024-04-19<br>
Encoded date : 2024-04-20 06:45:17 UTC<br>
Tagged date : 2024-04-20 06:45:17 UTC<br>
ISRC : USUMV2400584<br>
Cover : Yes<br>
<br>
Video<br>
ID : 1<br>
Format : AVC<br>
Format/Info : Advanced Video Codec<br>
Format profile : High@L4<br>
Format settings : CABAC / 4 Ref Frames<br>
Format settings, CABAC : Yes<br>
Format settings, Reference fra : 4 frames<br>
Codec ID : avc1<br>
Codec ID/Info : Advanced Video Coding<br>
Duration : 4 min 7 s<br>
Bit rate : 6 733 kb/s<br>
Maximum bit rate : 13.0 Mb/s<br>
Width : 1 920 pixels<br>
Height : 1 080 pixels<br>
Display aspect ratio : 16:9<br>
Frame rate mode : Constant<br>
Frame rate : 29.970 (30000/1001) FPS<br>
Color space : YUV<br>
Chroma subsampling : 4:2:0<br>
Bit depth : 8 bits<br>
Scan type : Progressive<br>
Bits/(Pixel*Frame) : 0.108<br>
Stream size : 198 MiB (96%)<br>
Default : Yes<br>
Alternate group : 1<br>
Encoded date : 2024-04-19 23:55:00 UTC<br>
Tagged date : 2024-04-20 06:45:17 UTC<br>
Color range : Limited<br>
Color primaries : BT.709<br>
Transfer characteristics : BT.709<br>
Matrix coefficients : BT.709<br>
Codec configuration box : avcC<br>
<br>
Audio<br>
ID : 2<br>
Format : AAC LC<br>
Format/Info : Advanced Audio Codec Low Complexity<br>
Codec ID : mp4a-40-2<br>
Duration : 4 min 7 s<br>
Duration_LastFrame : -18 ms<br>
Bit rate mode : Variable<br>
Bit rate : 256 kb/s<br>
Maximum bit rate : 361 kb/s<br>
Channel(s) : 2 channels<br>
Channel layout : L R<br>
Sampling rate : 48.0 kHz<br>
Frame rate : 46.875 FPS (1024 SPF)<br>
Compression mode : Lossy<br>
Stream size : 7.53 MiB (4%)<br>
Language : English<br>
Default : Yes<br>
Alternate group : 2<br>
Encoded date : 2024-04-19 23:53:37 UTC<br>
Tagged date : 2024-04-20 06:45:17 UTC</div>
</div><br>
Taylor Swift - thanK you aIMee (Lyric Video)<br>
<img src="https://imgur.com/7Vo9M6Q.jpg" class="bbCodeImage LbImage" alt="[​IMG]" data-url="https://imgur.com/7Vo9M6Q.jpg" style=""><br>
<div class="ToggleTriggerAnchor bbCodeSpoilerContainer">
<button type="button" class="button bbCodeSpoilerButton ToggleTrigger Tooltip JsOnly" data-target="> .SpoilerTarget"><span>Spoiler: <span class="SpoilerTitle">MEDIA INFO</span></span></button>
<div class="SpoilerTarget bbCodeSpoilerText">General<br>
Complete name : Taylor Swift - thanK you aIMee (Lyric Video) [1742259008] [E].mp4<br>
Format : MPEG-4<br>
Format profile : Base Media<br>
Codec ID : isom (isom/iso4)<br>
File size : 238 MiB<br>
Duration : 4 min 29 s<br>
Overall bit rate mode : Variable<br>
Overall bit rate : 7 408 kb/s<br>
Frame rate : 29.970 FPS<br>
Movie name : thanK you aIMee (Lyric Video)<br>
Performer : Taylor Swift<br>
Genre : Pop<br>
ContentType : Music Video<br>
Recorded date : 2024-04-19<br>
Encoded date : 2024-04-20 04:22:51 UTC<br>
Tagged date : 2024-04-20 04:22:51 UTC<br>
ISRC : USUMV2401496<br>
Cover : Yes<br>
Rating : Explicit<br>
<br>
Video<br>
ID : 1<br>
Format : AVC<br>
Format/Info : Advanced Video Codec<br>
Format profile : High@L4<br>
Format settings : CABAC / 4 Ref Frames<br>
Format settings, CABAC : Yes<br>
Format settings, Reference fra : 4 frames<br>
Codec ID : avc1<br>
Codec ID/Info : Advanced Video Coding<br>
Duration : 4 min 29 s<br>
Bit rate : 7 140 kb/s<br>
Maximum bit rate : 12.3 Mb/s<br>
Width : 1 920 pixels<br>
Height : 1 080 pixels<br>
Display aspect ratio : 16:9<br>
Frame rate mode : Constant<br>
Frame rate : 29.970 (30000/1001) FPS<br>
Color space : YUV<br>
Chroma subsampling : 4:2:0<br>
Bit depth : 8 bits<br>
Scan type : Progressive<br>
Bits/(Pixel*Frame) : 0.115<br>
Stream size : 229 MiB (96%)<br>
Default : Yes<br>
Alternate group : 1<br>
Encoded date : 2024-04-20 00:00:58 UTC<br>
Tagged date : 2024-04-20 04:22:52 UTC<br>
Color range : Limited<br>
Color primaries : BT.709<br>
Transfer characteristics : BT.709<br>
Matrix coefficients : BT.709<br>
Codec configuration box : avcC<br>
<br>
Audio<br>
ID : 2<br>
Format : AAC LC<br>
Format/Info : Advanced Audio Codec Low Complexity<br>
Codec ID : mp4a-40-2<br>
Duration : 4 min 29 s<br>
Duration_LastFrame : -5 ms<br>
Bit rate mode : Variable<br>
Bit rate : 253 kb/s<br>
Maximum bit rate : 367 kb/s<br>
Channel(s) : 2 channels<br>
Channel layout : L R<br>
Sampling rate : 48.0 kHz<br>
Frame rate : 46.875 FPS (1024 SPF)<br>
Compression mode : Lossy<br>
Stream size : 8.14 MiB (3%)<br>
Language : English<br>
Default : Yes<br>
Alternate group : 2<br>
Encoded date : 2024-04-20 00:00:30 UTC<br>
Tagged date : 2024-04-20 04:22:52 UTC</div>
</div><br>
Taylor Swift - I Look in People's Windows (Lyric Video)<br>
<img src="https://imgur.com/xl3i7BO.jpg" class="bbCodeImage LbImage" alt="[​IMG]" data-url="https://imgur.com/xl3i7BO.jpg" style=""><br>
<div class="ToggleTriggerAnchor bbCodeSpoilerContainer">
<button type="button" class="button bbCodeSpoilerButton ToggleTrigger Tooltip JsOnly" data-target="> .SpoilerTarget"><span>Spoiler: <span class="SpoilerTitle">MEDIA INFO</span></span></button>
<div class="SpoilerTarget bbCodeSpoilerText">General<br>
Complete name : Taylor Swift - I Look in People's Windows (Lyric Video) [1742250352].mp4<br>
Format : MPEG-4<br>
Format profile : Base Media<br>
Codec ID : isom (isom/iso4)<br>
File size : 124 MiB<br>
Duration : 2 min 18 s<br>
Overall bit rate mode : Variable<br>
Overall bit rate : 7 538 kb/s<br>
Frame rate : 29.970 FPS<br>
Movie name : I Look in People's Windows (Lyric Video)<br>
Performer : Taylor Swift<br>
Genre : Pop<br>
ContentType : Music Video<br>
Recorded date : 2024-04-19<br>
Encoded date : 2024-04-20 06:47:26 UTC<br>
Tagged date : 2024-04-20 06:47:26 UTC<br>
ISRC : USUMV2401497<br>
Cover : Yes<br>
<br>
Video<br>
ID : 1<br>
Format : AVC<br>
Format/Info : Advanced Video Codec<br>
Format profile : High@L4<br>
Format settings : CABAC / 4 Ref Frames<br>
Format settings, CABAC : Yes<br>
Format settings, Reference fra : 4 frames<br>
Codec ID : avc1<br>
Codec ID/Info : Advanced Video Coding<br>
Duration : 2 min 18 s<br>
Bit rate : 7 266 kb/s<br>
Maximum bit rate : 12.5 Mb/s<br>
Width : 1 920 pixels<br>
Height : 1 080 pixels<br>
Display aspect ratio : 16:9<br>
Frame rate mode : Constant<br>
Frame rate : 29.970 (30000/1001) FPS<br>
Color space : YUV<br>
Chroma subsampling : 4:2:0<br>
Bit depth : 8 bits<br>
Scan type : Progressive<br>
Bits/(Pixel*Frame) : 0.117<br>
Stream size : 120 MiB (96%)<br>
Default : Yes<br>
Alternate group : 1<br>
Encoded date : 2024-04-19 23:54:56 UTC<br>
Tagged date : 2024-04-20 06:47:26 UTC<br>
Color range : Limited<br>
Color primaries : BT.709<br>
Transfer characteristics : BT.709<br>
Matrix coefficients : BT.709<br>
Codec configuration box : avcC<br>
<br>
Audio<br>
ID : 2<br>
Format : AAC LC<br>
Format/Info : Advanced Audio Codec Low Complexity<br>
Codec ID : mp4a-40-2<br>
Duration : 2 min 18 s<br>
Duration_LastFrame : -13 ms<br>
Bit rate mode : Variable<br>
Bit rate : 241 kb/s<br>
Maximum bit rate : 345 kb/s<br>
Channel(s) : 2 channels<br>
Channel layout : L R<br>
Sampling rate : 48.0 kHz<br>
Frame rate : 46.875 FPS (1024 SPF)<br>
Compression mode : Lossy<br>
Stream size : 3.97 MiB (3%)<br>
Language : English<br>
Default : Yes<br>
Alternate group : 2<br>
Encoded date : 2024-04-19 23:54:46 UTC<br>
Tagged date : 2024-04-20 06:47:26 UTC</div>
</div><br>
Taylor Swift - The Prophecy (Lyric Video)<br>
<img src="https://imgur.com/lTyQO2J.jpg" class="bbCodeImage LbImage" alt="[​IMG]" data-url="https://imgur.com/lTyQO2J.jpg" style=""><br>
<div class="ToggleTriggerAnchor bbCodeSpoilerContainer">
<button type="button" class="button bbCodeSpoilerButton ToggleTrigger Tooltip JsOnly" data-target="> .SpoilerTarget"><span>Spoiler: <span class="SpoilerTitle">MEDIA INFO</span></span></button>
<div class="SpoilerTarget bbCodeSpoilerText">General<br>
Complete name : Taylor Swift - The Prophecy (Lyric Video) [1742253621].mp4<br>
Format : MPEG-4<br>
Format profile : Base Media<br>
Codec ID : isom (isom/iso4)<br>
File size : 212 MiB<br>
Duration : 4 min 13 s<br>
Overall bit rate mode : Variable<br>
Overall bit rate : 7 024 kb/s<br>
Frame rate : 29.970 FPS<br>
Movie name : The Prophecy (Lyric Video)<br>
Performer : Taylor Swift<br>
Genre : Pop<br>
ContentType : Music Video<br>
Recorded date : 2024-04-19<br>
Encoded date : 2024-04-20 04:46:54 UTC<br>
Tagged date : 2024-04-20 04:46:54 UTC<br>
ISRC : USUMV2401498<br>
Cover : Yes<br>
<br>
Video<br>
ID : 1<br>
Format : AVC<br>
Format/Info : Advanced Video Codec<br>
Format profile : High@L4<br>
Format settings : CABAC / 4 Ref Frames<br>
Format settings, CABAC : Yes<br>
Format settings, Reference fra : 4 frames<br>
Codec ID : avc1<br>
Codec ID/Info : Advanced Video Coding<br>
Duration : 4 min 13 s<br>
Bit rate : 6 752 kb/s<br>
Maximum bit rate : 12.3 Mb/s<br>
Width : 1 920 pixels<br>
Height : 1 080 pixels<br>
Display aspect ratio : 16:9<br>
Frame rate mode : Constant<br>
Frame rate : 29.970 (30000/1001) FPS<br>
Color space : YUV<br>
Chroma subsampling : 4:2:0<br>
Bit depth : 8 bits<br>
Scan type : Progressive<br>
Bits/(Pixel*Frame) : 0.109<br>
Stream size : 204 MiB (96%)<br>
Default : Yes<br>
Alternate group : 1<br>
Encoded date : 2024-04-19 23:48:15 UTC<br>
Tagged date : 2024-04-20 04:46:54 UTC<br>
Color range : Limited<br>
Color primaries : BT.709<br>
Transfer characteristics : BT.709<br>
Matrix coefficients : BT.709<br>
Codec configuration box : avcC<br>
<br>
Audio<br>
ID : 2<br>
Format : AAC LC<br>
Format/Info : Advanced Audio Codec Low Complexity<br>
Codec ID : mp4a-40-2<br>
Duration : 4 min 13 s<br>
Duration_LastFrame : -6 ms<br>
Bit rate mode : Variable<br>
Bit rate : 253 kb/s<br>
Maximum bit rate : 311 kb/s<br>
Channel(s) : 2 channels<br>
Channel layout : L R<br>
Sampling rate : 48.0 kHz<br>
Frame rate : 46.875 FPS (1024 SPF)<br>
Compression mode : Lossy<br>
Stream size : 7.66 MiB (4%)<br>
Language : English<br>
Default : Yes<br>
Alternate group : 2<br>
Encoded date : 2024-04-19 23:48:02 UTC<br>
Tagged date : 2024-04-20 04:46:54 UTC</div>
</div><br>
Taylor Swift - Cassandra (Lyric Video)<br>
<img src="https://imgur.com/8uWcPzH.jpg" class="bbCodeImage LbImage" alt="[​IMG]" data-url="https://imgur.com/8uWcPzH.jpg" style=""><br>
<div class="ToggleTriggerAnchor bbCodeSpoilerContainer">
<button type="button" class="button bbCodeSpoilerButton ToggleTrigger Tooltip JsOnly" data-target="> .SpoilerTarget"><span>Spoiler: <span class="SpoilerTitle">MEDIA INFO</span></span></button>
<div class="SpoilerTarget bbCodeSpoilerText">General<br>
Complete name : Taylor Swift - Cassandra (Lyric Video) [1742247942] [E].mp4<br>
Format : MPEG-4<br>
Format profile : Base Media<br>
Codec ID : isom (isom/iso4)<br>
File size : 205 MiB<br>
Duration : 4 min 5 s<br>
Overall bit rate mode : Variable<br>
Overall bit rate : 6 993 kb/s<br>
Frame rate : 29.970 FPS<br>
Movie name : Cassandra (Lyric Video)<br>
Performer : Taylor Swift<br>
Genre : Pop<br>
ContentType : Music Video<br>
Recorded date : 2024-04-19<br>
Encoded date : 2024-04-20 06:49:16 UTC<br>
Tagged date : 2024-04-20 06:49:16 UTC<br>
ISRC : USUMV2401499<br>
Cover : Yes<br>
Rating : Explicit<br>
<br>
Video<br>
ID : 1<br>
Format : AVC<br>
Format/Info : Advanced Video Codec<br>
Format profile : High@L4<br>
Format settings : CABAC / 4 Ref Frames<br>
Format settings, CABAC : Yes<br>
Format settings, Reference fra : 4 frames<br>
Codec ID : avc1<br>
Codec ID/Info : Advanced Video Coding<br>
Duration : 4 min 5 s<br>
Bit rate : 6 721 kb/s<br>
Maximum bit rate : 11.6 Mb/s<br>
Width : 1 920 pixels<br>
Height : 1 080 pixels<br>
Display aspect ratio : 16:9<br>
Frame rate mode : Constant<br>
Frame rate : 29.970 (30000/1001) FPS<br>
Color space : YUV<br>
Chroma subsampling : 4:2:0<br>
Bit depth : 8 bits<br>
Scan type : Progressive<br>
Bits/(Pixel*Frame) : 0.108<br>
Stream size : 197 MiB (96%)<br>
Default : Yes<br>
Alternate group : 1<br>
Encoded date : 2024-04-19 23:50:27 UTC<br>
Tagged date : 2024-04-20 06:49:16 UTC<br>
Color range : Limited<br>
Color primaries : BT.709<br>
Transfer characteristics : BT.709<br>
Matrix coefficients : BT.709<br>
Codec configuration box : avcC<br>
<br>
Audio<br>
ID : 2<br>
Format : AAC LC<br>
Format/Info : Advanced Audio Codec Low Complexity<br>
Codec ID : mp4a-40-2<br>
Duration : 4 min 5 s<br>
Duration_LastFrame : -13 ms<br>
Bit rate mode : Variable<br>
Bit rate : 253 kb/s<br>
Maximum bit rate : 392 kb/s<br>
Channel(s) : 2 channels<br>
Channel layout : L R<br>
Sampling rate : 48.0 kHz<br>
Frame rate : 46.875 FPS (1024 SPF)<br>
Compression mode : Lossy<br>
Stream size : 7.39 MiB (4%)<br>
Language : English<br>
Default : Yes<br>
Alternate group : 2<br>
Encoded date : 2024-04-19 23:50:02 UTC<br>
Tagged date : 2024-04-20 06:49:16 UTC</div>
</div><br>
Taylor Swift - Peter (Lyric Video)<br>
<img src="https://imgur.com/WC2gltR.jpg" class="bbCodeImage LbImage" alt="[​IMG]" data-url="https://imgur.com/WC2gltR.jpg" style=""><br>
<div class="ToggleTriggerAnchor bbCodeSpoilerContainer">
<button type="button" class="button bbCodeSpoilerButton ToggleTrigger Tooltip JsOnly" data-target="> .SpoilerTarget"><span>Spoiler: <span class="SpoilerTitle">MEDIA INFO</span></span></button>
<div class="SpoilerTarget bbCodeSpoilerText">General<br>
Complete name : Taylor Swift - Peter (Lyric Video) [1742248117].mp4<br>
Format : MPEG-4<br>
Format profile : Base Media<br>
Codec ID : isom (isom/iso4)<br>
File size : 249 MiB<br>
Duration : 4 min 49 s<br>
Overall bit rate mode : Variable<br>
Overall bit rate : 7 209 kb/s<br>
Frame rate : 29.970 FPS<br>
Movie name : Peter (Lyric Video)<br>
Performer : Taylor Swift<br>
Genre : Pop<br>
ContentType : Music Video<br>
Recorded date : 2024-04-19<br>
Encoded date : 2024-04-20 06:50:28 UTC<br>
Tagged date : 2024-04-20 06:50:28 UTC<br>
ISRC : USUMV2401500<br>
Cover : Yes<br>
<br>
Video<br>
ID : 1<br>
Format : AVC<br>
Format/Info : Advanced Video Codec<br>
Format profile : High@L4<br>
Format settings : CABAC / 4 Ref Frames<br>
Format settings, CABAC : Yes<br>
Format settings, Reference fra : 4 frames<br>
Codec ID : avc1<br>
Codec ID/Info : Advanced Video Coding<br>
Duration : 4 min 49 s<br>
Bit rate : 6 940 kb/s<br>
Maximum bit rate : 16.3 Mb/s<br>
Width : 1 920 pixels<br>
Height : 1 080 pixels<br>
Display aspect ratio : 16:9<br>
Frame rate mode : Constant<br>
Frame rate : 29.970 (30000/1001) FPS<br>
Color space : YUV<br>
Chroma subsampling : 4:2:0<br>
Bit depth : 8 bits<br>
Scan type : Progressive<br>
Bits/(Pixel*Frame) : 0.112<br>
Stream size : 240 MiB (96%)<br>
Default : Yes<br>
Alternate group : 1<br>
Encoded date : 2024-04-20 00:50:43 UTC<br>
Tagged date : 2024-04-20 06:50:28 UTC<br>
Color range : Limited<br>
Color primaries : BT.709<br>
Transfer characteristics : BT.709<br>
Matrix coefficients : BT.709<br>
Codec configuration box : avcC<br>
<br>
Audio<br>
ID : 2<br>
Format : AAC LC<br>
Format/Info : Advanced Audio Codec Low Complexity<br>
Codec ID : mp4a-40-2<br>
Duration : 4 min 49 s<br>
Duration_LastFrame : -12 ms<br>
Bit rate mode : Variable<br>
Bit rate : 248 kb/s<br>
Maximum bit rate : 372 kb/s<br>
Channel(s) : 2 channels<br>
Channel layout : L R<br>
Sampling rate : 48.0 kHz<br>
Frame rate : 46.875 FPS (1024 SPF)<br>
Compression mode : Lossy<br>
Stream size : 8.59 MiB (3%)<br>
Language : English<br>
Default : Yes<br>
Alternate group : 2<br>
Encoded date : 2024-04-20 00:50:16 UTC<br>
Tagged date : 2024-04-20 06:50:28 UTC</div>
</div><br>
Taylor Swift - The Bolter (Lyric Video)<br>
<img src="https://imgur.com/gAct979.jpg" class="bbCodeImage LbImage" alt="[​IMG]" data-url="https://imgur.com/gAct979.jpg" style=""><br>
<div class="ToggleTriggerAnchor bbCodeSpoilerContainer">
<button type="button" class="button bbCodeSpoilerButton ToggleTrigger Tooltip JsOnly" data-target="> .SpoilerTarget"><span>Spoiler: <span class="SpoilerTitle">MEDIA INFO</span></span></button>
<div class="SpoilerTarget bbCodeSpoilerText">General<br>
Complete name : Taylor Swift - The Bolter (Lyric Video) [1742254374] [E].mp4<br>
Format : MPEG-4<br>
Format profile : Base Media<br>
Codec ID : isom (isom/iso4)<br>
File size : 189 MiB<br>
Duration : 4 min 2 s<br>
Overall bit rate mode : Variable<br>
Overall bit rate : 6 537 kb/s<br>
Frame rate : 29.970 FPS<br>
Movie name : The Bolter (Lyric Video)<br>
Performer : Taylor Swift<br>
Genre : Pop<br>
ContentType : Music Video<br>
Recorded date : 2024-04-19<br>
Encoded date : 2024-04-20 06:51:27 UTC<br>
Tagged date : 2024-04-20 06:51:27 UTC<br>
ISRC : USUMV2401501<br>
Cover : Yes<br>
Rating : Explicit<br>
<br>
Video<br>
ID : 1<br>
Format : AVC<br>
Format/Info : Advanced Video Codec<br>
Format profile : High@L4<br>
Format settings : CABAC / 4 Ref Frames<br>
Format settings, CABAC : Yes<br>
Format settings, Reference fra : 4 frames<br>
Codec ID : avc1<br>
Codec ID/Info : Advanced Video Coding<br>
Duration : 4 min 2 s<br>
Bit rate : 6 262 kb/s<br>
Maximum bit rate : 15.3 Mb/s<br>
Width : 1 920 pixels<br>
Height : 1 080 pixels<br>
Display aspect ratio : 16:9<br>
Frame rate mode : Constant<br>
Frame rate : 29.970 (30000/1001) FPS<br>
Color space : YUV<br>
Chroma subsampling : 4:2:0<br>
Bit depth : 8 bits<br>
Scan type : Progressive<br>
Bits/(Pixel*Frame) : 0.101<br>
Stream size : 181 MiB (96%)<br>
Default : Yes<br>
Alternate group : 1<br>
Encoded date : 2024-04-20 00:01:37 UTC<br>
Tagged date : 2024-04-20 06:51:28 UTC<br>
Color range : Limited<br>
Color primaries : BT.709<br>
Transfer characteristics : BT.709<br>
Matrix coefficients : BT.709<br>
Codec configuration box : avcC<br>
<br>
Audio<br>
ID : 2<br>
Format : AAC LC<br>
Format/Info : Advanced Audio Codec Low Complexity<br>
Codec ID : mp4a-40-2<br>
Duration : 4 min 2 s<br>
Duration_LastFrame : -1 ms<br>
Bit rate mode : Variable<br>
Bit rate : 254 kb/s<br>
Maximum bit rate : 314 kb/s<br>
Channel(s) : 2 channels<br>
Channel layout : L R<br>
Sampling rate : 48.0 kHz<br>
Frame rate : 46.875 FPS (1024 SPF)<br>
Compression mode : Lossy<br>
Stream size : 7.34 MiB (4%)<br>
Language : English<br>
Default : Yes<br>
Alternate group : 2<br>
Encoded date : 2024-04-20 00:01:32 UTC<br>
Tagged date : 2024-04-20 06:51:28 UTC</div>
</div><br>
Taylor Swift - Robin (Lyric Video)<br>
<img src="https://imgur.com/M1KmrqG.jpg" class="bbCodeImage LbImage" alt="[​IMG]" data-url="https://imgur.com/M1KmrqG.jpg" style=""><br>
<div class="ToggleTriggerAnchor bbCodeSpoilerContainer">
<button type="button" class="button bbCodeSpoilerButton ToggleTrigger Tooltip JsOnly" data-target="> .SpoilerTarget"><span>Spoiler: <span class="SpoilerTitle">MEDIA INFO</span></span></button>
<div class="SpoilerTarget bbCodeSpoilerText">General<br>
Complete name : Taylor Swift - Robin (Lyric Video) [1742259083].mp4<br>
Format : MPEG-4<br>
Format profile : Base Media<br>
Codec ID : isom (isom/iso4)<br>
File size : 205 MiB<br>
Duration : 4 min 5 s<br>
Overall bit rate mode : Variable<br>
Overall bit rate : 6 996 kb/s<br>
Frame rate : 29.970 FPS<br>
Movie name : Robin (Lyric Video)<br>
Performer : Taylor Swift<br>
Genre : Pop<br>
ContentType : Music Video<br>
Recorded date : 2024-04-19<br>
Encoded date : 2024-04-20 04:44:07 UTC<br>
Tagged date : 2024-04-20 04:44:07 UTC<br>
ISRC : USUMV2401502<br>
Cover : Yes<br>
<br>
Video<br>
ID : 1<br>
Format : AVC<br>
Format/Info : Advanced Video Codec<br>
Format profile : High@L4<br>
Format settings : CABAC / 4 Ref Frames<br>
Format settings, CABAC : Yes<br>
Format settings, Reference fra : 4 frames<br>
Codec ID : avc1<br>
Codec ID/Info : Advanced Video Coding<br>
Duration : 4 min 5 s<br>
Bit rate : 6 727 kb/s<br>
Maximum bit rate : 10.7 Mb/s<br>
Width : 1 920 pixels<br>
Height : 1 080 pixels<br>
Display aspect ratio : 16:9<br>
Frame rate mode : Constant<br>
Frame rate : 29.970 (30000/1001) FPS<br>
Color space : YUV<br>
Chroma subsampling : 4:2:0<br>
Bit depth : 8 bits<br>
Scan type : Progressive<br>
Bits/(Pixel*Frame) : 0.108<br>
Stream size : 197 MiB (96%)<br>
Default : Yes<br>
Alternate group : 1<br>
Encoded date : 2024-04-20 01:56:33 UTC<br>
Tagged date : 2024-04-20 04:44:07 UTC<br>
Color range : Limited<br>
Color primaries : BT.709<br>
Transfer characteristics : BT.709<br>
Matrix coefficients : BT.709<br>
Codec configuration box : avcC<br>
<br>
Audio<br>
ID : 2<br>
Format : AAC LC<br>
Format/Info : Advanced Audio Codec Low Complexity<br>
Codec ID : mp4a-40-2<br>
Duration : 4 min 5 s<br>
Duration_LastFrame : -12 ms<br>
Bit rate mode : Variable<br>
Bit rate : 252 kb/s<br>
Maximum bit rate : 350 kb/s<br>
Channel(s) : 2 channels<br>
Channel layout : L R<br>
Sampling rate : 48.0 kHz<br>
Frame rate : 46.875 FPS (1024 SPF)<br>
Compression mode : Lossy<br>
Stream size : 7.39 MiB (4%)<br>
Language : English<br>
Default : Yes<br>
Alternate group : 2<br>
Encoded date : 2024-04-20 01:56:23 UTC<br>
Tagged date : 2024-04-20 04:44:07 UTC</div>
</div><br>
Taylor Swift - The Manuscript (Lyric Video)<br>
<img src="https://imgur.com/IDsr5XJ.jpg" class="bbCodeImage LbImage" alt="[​IMG]" data-url="https://imgur.com/IDsr5XJ.jpg" style=""><br>
<div class="ToggleTriggerAnchor bbCodeSpoilerContainer">
<button type="button" class="button bbCodeSpoilerButton ToggleTrigger Tooltip JsOnly" data-target="> .SpoilerTarget"><span>Spoiler: <span class="SpoilerTitle">MEDIA INFO</span></span></button>
<div class="SpoilerTarget bbCodeSpoilerText">General<br>
Complete name : Taylor Swift - The Manuscript (Lyric Video) [1742258467].mp4<br>
Format : MPEG-4<br>
Format profile : Base Media<br>
Codec ID : isom (isom/iso4)<br>
File size : 183 MiB<br>
Duration : 3 min 48 s<br>
Overall bit rate mode : Variable<br>
Overall bit rate : 6 696 kb/s<br>
Frame rate : 29.970 FPS<br>
Movie name : The Manuscript (Lyric Video)<br>
Performer : Taylor Swift<br>
Genre : Pop<br>
ContentType : Music Video<br>
Recorded date : 2024-04-19<br>
Encoded date : 2024-04-20 06:53:05 UTC<br>
Tagged date : 2024-04-20 06:53:05 UTC<br>
ISRC : USUMV2401503<br>
Cover : Yes<br>
<br>
Video<br>
ID : 1<br>
Format : AVC<br>
Format/Info : Advanced Video Codec<br>
Format profile : High@L4<br>
Format settings : CABAC / 4 Ref Frames<br>
Format settings, CABAC : Yes<br>
Format settings, Reference fra : 4 frames<br>
Codec ID : avc1<br>
Codec ID/Info : Advanced Video Coding<br>
Duration : 3 min 48 s<br>
Bit rate : 6 417 kb/s<br>
Maximum bit rate : 32.5 Mb/s<br>
Width : 1 920 pixels<br>
Height : 1 080 pixels<br>
Display aspect ratio : 16:9<br>
Frame rate mode : Constant<br>
Frame rate : 29.970 (30000/1001) FPS<br>
Color space : YUV<br>
Chroma subsampling : 4:2:0<br>
Bit depth : 8 bits<br>
Scan type : Progressive<br>
Bits/(Pixel*Frame) : 0.103<br>
Stream size : 175 MiB (96%)<br>
Default : Yes<br>
Alternate group : 1<br>
Encoded date : 2024-04-19 23:58:24 UTC<br>
Tagged date : 2024-04-20 06:53:05 UTC<br>
Color range : Limited<br>
Color primaries : BT.709<br>
Transfer characteristics : BT.709<br>
Matrix coefficients : BT.709<br>
Codec configuration box : avcC<br>
<br>
Audio<br>
ID : 2<br>
Format : AAC LC<br>
Format/Info : Advanced Audio Codec Low Complexity<br>
Codec ID : mp4a-40-2<br>
Duration : 3 min 48 s<br>
Duration_LastFrame : -5 ms<br>
Bit rate mode : Variable<br>
Bit rate : 250 kb/s<br>
Maximum bit rate : 322 kb/s<br>
Channel(s) : 2 channels<br>
Channel layout : L R<br>
Sampling rate : 48.0 kHz<br>
Frame rate : 46.875 FPS (1024 SPF)<br>
Compression mode : Lossy<br>
Stream size : 6.81 MiB (4%)<br>
Language : English<br>
Default : Yes<br>
Alternate group : 2<br>
Encoded date : 2024-04-19 23:58:20 UTC<br>
Tagged date : 2024-04-20 06:53:05 UTC</div>
</div><br>
Taylor Swift - Fortnight (feat. Post Malone) (Music Video)<br>
<img src="https://imgur.com/KLonVXc.jpg" class="bbCodeImage LbImage" alt="[​IMG]" data-url="https://imgur.com/KLonVXc.jpg" style=""><br>
<div class="ToggleTriggerAnchor bbCodeSpoilerContainer">
<button type="button" class="button bbCodeSpoilerButton ToggleTrigger Tooltip JsOnly" data-target="> .SpoilerTarget"><span>Spoiler: <span class="SpoilerTitle">MEDIA INFO</span></span></button>
<div class="SpoilerTarget bbCodeSpoilerText">General<br>
Complete name : Taylor Swift - Fortnight (feat. Post Malone) [1742247789].mp4<br>
Format : MPEG-4<br>
Format profile : Base Media<br>
Codec ID : isom (isom/iso4)<br>
File size : 196 MiB<br>
Duration : 4 min 9 s<br>
Overall bit rate mode : Variable<br>
Overall bit rate : 6 604 kb/s<br>
Frame rate : 23.976 FPS<br>
Movie name : Fortnight (feat. Post Malone)<br>
Performer : Taylor Swift<br>
Genre : Pop<br>
ContentType : Music Video<br>
Recorded date : 2024-04-19<br>
Encoded date : 2024-04-20 06:00:59 UTC<br>
Tagged date : 2024-04-20 06:00:59 UTC<br>
ISRC : USUMV2400576<br>
Cover : Yes<br>
<br>
Video<br>
ID : 1<br>
Format : AVC<br>
Format/Info : Advanced Video Codec<br>
Format profile : High@L4<br>
Format settings : CABAC / 4 Ref Frames<br>
Format settings, CABAC : Yes<br>
Format settings, Reference fra : 4 frames<br>
Codec ID : avc1<br>
Codec ID/Info : Advanced Video Coding<br>
Duration : 4 min 9 s<br>
Bit rate : 6 330 kb/s<br>
Maximum bit rate : 14.1 Mb/s<br>
Width : 1 920 pixels<br>
Height : 1 080 pixels<br>
Display aspect ratio : 16:9<br>
Frame rate mode : Constant<br>
Frame rate : 23.976 (24000/1001) FPS<br>
Color space : YUV<br>
Chroma subsampling : 4:2:0<br>
Bit depth : 8 bits<br>
Scan type : Progressive<br>
Bits/(Pixel*Frame) : 0.127<br>
Stream size : 188 MiB (96%)<br>
Default : Yes<br>
Alternate group : 1<br>
Encoded date : 2024-04-20 02:24:37 UTC<br>
Tagged date : 2024-04-20 06:01:00 UTC<br>
Color range : Limited<br>
Color primaries : BT.709<br>
Transfer characteristics : BT.709<br>
Matrix coefficients : BT.709<br>
Codec configuration box : avcC<br>
<br>
Audio<br>
ID : 2<br>
Format : AAC LC<br>
Format/Info : Advanced Audio Codec Low Complexity<br>
Codec ID : mp4a-40-2<br>
Duration : 4 min 9 s<br>
Duration_LastFrame : -4 ms<br>
Bit rate mode : Variable<br>
Bit rate : 258 kb/s<br>
Maximum bit rate : 382 kb/s<br>
Channel(s) : 2 channels<br>
Channel layout : L R<br>
Sampling rate : 48.0 kHz<br>
Frame rate : 46.875 FPS (1024 SPF)<br>
Compression mode : Lossy<br>
Stream size : 7.68 MiB (4%)<br>
Language : English<br>
Default : Yes<br>
Alternate group : 2<br>
Encoded date : 2024-04-20 02:24:33 UTC<br>
Tagged date : 2024-04-20 06:01:00 UTC<br>
<br>
Text<br>
ID : 3<br>
Format : Timed Text<br>
Codec ID : tx3g<br>
Duration : 4 min 5 s<br>
Bit rate mode : Variable<br>
Bit rate : 98 b/s<br>
Frame rate : 0.607 FPS<br>
Stream size : 2.94 KiB (0%)<br>
Language : English<br>
Default : Yes<br>
Forced : No<br>
Alternate group : 3<br>
Encoded date : 2024-04-20 06:01:00 UTC<br>
Tagged date : 2024-04-20 06:01:00 UTC<br>
Count of events : 74</div>
</div><br>
<div class="ToggleTriggerAnchor bbCodeSpoilerContainer">
<button type="button" class="button bbCodeSpoilerButton ToggleTrigger Tooltip JsOnly" data-target="> .SpoilerTarget"><span>Spoiler: <span class="SpoilerTitle">DOWNLOAD</span></span></button>
<div class="SpoilerTarget bbCodeSpoilerText">
<div class="bbCodeBlock bbCodeVfcHH HiddenContent">
<div class="attribution type">Hidden Content:</div>
<blockquote>You must either reply or click 'Like' to see the hidden information contained here.</blockquote>
</div></div>
</div><br>
<div class="ToggleTriggerAnchor bbCodeSpoilerContainer">
<button type="button" class="button bbCodeSpoilerButton ToggleTrigger Tooltip JsOnly" data-target="> .SpoilerTarget"><span>Spoiler: <span class="SpoilerTitle">ALT DOWNLOAD</span></span></button>
<div class="SpoilerTarget bbCodeSpoilerText">Telegram Channel<br>
<div class="bbCodeBlock bbCodeVfcHH HiddenContent">
<div class="attribution type">Hidden Content:</div>
<blockquote>You must either reply or click 'Like' to see the hidden information contained here.</blockquote>
</div></div>
</div><br>
<img src="https://imgur.com/hRQLXDa.jpg" class="bbCodeImage LbImage" alt="[​IMG]" data-url="https://imgur.com/hRQLXDa.jpg" style=""><br>
<img src="https://imgur.com/hRQLXDa" class="bbCodeImage LbImage" alt="[​IMG]" data-url="https://imgur.com/hRQLXDa" style="">
<div class="messageTextEndMarker">&nbsp;</div>
</blockquote>
</article>]]></description>
                <author><![CDATA[exampleabc853]]></author>
                </item>

                </channel></rss>